<?xml version="1.0" encoding="UTF-8" standalone="no"?>
<!DOCTYPE svg PUBLIC "-//W3C//DTD SVG 1.1//EN"
 "http://www.w3.org/Graphics/SVG/1.1/DTD/svg11.dtd">
<!-- Generated by graphviz version 2.38.0 (20140413.2041)
 -->
<!-- Title: %3 Pages: 1 -->
<svg width="1415pt" height="476pt"
 viewBox="0.00 0.00 1414.74 476.00" xmlns="http://www.w3.org/2000/svg" xmlns:xlink="http://www.w3.org/1999/xlink">
<g id="graph0" class="graph" transform="scale(1 1) rotate(0) translate(4 472)">
<title>%3</title>
<polygon fill="white" stroke="none" points="-4,4 -4,-472 1410.74,-472 1410.74,4 -4,4"/>
<!-- [root] aws_iam_role.lambda (expand) -->
<g id="node1" class="node"><title>[root] aws_iam_role.lambda (expand)</title>
<polygon fill="none" stroke="black" points="495.364,-180 357.364,-180 357.364,-144 495.364,-144 495.364,-180"/>
<text text-anchor="middle" x="426.364" y="-158.3" font-family="Times New Roman,serif" font-size="14.00">aws_iam_role.lambda</text>
</g>
<!-- [root] provider[&quot;registry.terraform.io/hashicorp/aws&quot;] -->
<g id="node13" class="node"><title>[root] provider[&quot;registry.terraform.io/hashicorp/aws&quot;]</title>
<polygon fill="none" stroke="black" points="257.364,-108 0.135896,-90 257.364,-72 514.592,-90 257.364,-108"/>
<text text-anchor="middle" x="257.364" y="-86.3" font-family="Times New Roman,serif" font-size="14.00">provider[&quot;registry.terraform.io/hashicorp/aws&quot;]</text>
</g>
<!-- [root] aws_iam_role.lambda (expand)&#45;&gt;[root] provider[&quot;registry.terraform.io/hashicorp/aws&quot;] -->
<g id="edge1" class="edge"><title>[root] aws_iam_role.lambda (expand)&#45;&gt;[root] provider[&quot;registry.terraform.io/hashicorp/aws&quot;]</title>
<path fill="none" stroke="black" d="M385.022,-143.876C359.894,-133.468 327.805,-120.177 302.086,-109.524"/>
<polygon fill="black" stroke="black" points="303.147,-106.175 292.569,-105.582 300.468,-112.642 303.147,-106.175"/>
</g>
<!-- [root] var.obj_prefix -->
<g id="node15" class="node"><title>[root] var.obj_prefix</title>
<polygon fill="none" stroke="black" points="621.864,-108 532.864,-108 532.864,-72 627.864,-72 627.864,-102 621.864,-108"/>
<polyline fill="none" stroke="black" points="621.864,-108 621.864,-102 "/>
<polyline fill="none" stroke="black" points="627.864,-102 621.864,-102 "/>
<text text-anchor="middle" x="580.364" y="-86.3" font-family="Times New Roman,serif" font-size="14.00">var.obj_prefix</text>
</g>
<!-- [root] aws_iam_role.lambda (expand)&#45;&gt;[root] var.obj_prefix -->
<g id="edge2" class="edge"><title>[root] aws_iam_role.lambda (expand)&#45;&gt;[root] var.obj_prefix</title>
<path fill="none" stroke="black" d="M464.037,-143.876C484.996,-134.349 511.269,-122.407 533.541,-112.283"/>
<polygon fill="black" stroke="black" points="535.158,-115.393 542.814,-108.068 532.262,-109.02 535.158,-115.393"/>
</g>
<!-- [root] aws_iam_role.step_function (expand) -->
<g id="node2" class="node"><title>[root] aws_iam_role.step_function (expand)</title>
<polygon fill="none" stroke="black" points="687.364,-180 513.364,-180 513.364,-144 687.364,-144 687.364,-180"/>
<text text-anchor="middle" x="600.364" y="-158.3" font-family="Times New Roman,serif" font-size="14.00">aws_iam_role.step_function</text>
</g>
<!-- [root] aws_iam_role.step_function (expand)&#45;&gt;[root] provider[&quot;registry.terraform.io/hashicorp/aws&quot;] -->
<g id="edge3" class="edge"><title>[root] aws_iam_role.step_function (expand)&#45;&gt;[root] provider[&quot;registry.terraform.io/hashicorp/aws&quot;]</title>
<path fill="none" stroke="black" d="M516.895,-143.966C459.585,-132.27 384.28,-116.901 329.556,-105.733"/>
<polygon fill="black" stroke="black" points="330.085,-102.269 319.587,-103.699 328.685,-109.127 330.085,-102.269"/>
</g>
<!-- [root] aws_iam_role.step_function (expand)&#45;&gt;[root] var.obj_prefix -->
<g id="edge4" class="edge"><title>[root] aws_iam_role.step_function (expand)&#45;&gt;[root] var.obj_prefix</title>
<path fill="none" stroke="black" d="M595.42,-143.697C593.192,-135.898 590.509,-126.509 588.03,-117.829"/>
<polygon fill="black" stroke="black" points="591.364,-116.758 585.251,-108.104 584.633,-118.681 591.364,-116.758"/>
</g>
<!-- [root] aws_iam_role_policy.lambda_policy (expand) -->
<g id="node3" class="node"><title>[root] aws_iam_role_policy.lambda_policy (expand)</title>
<polygon fill="none" stroke="black" points="332.364,-324 110.364,-324 110.364,-288 332.364,-288 332.364,-324"/>
<text text-anchor="middle" x="221.364" y="-302.3" font-family="Times New Roman,serif" font-size="14.00">aws_iam_role_policy.lambda_policy</text>
</g>
<!-- [root] aws_iam_role_policy.lambda_policy (expand)&#45;&gt;[root] aws_iam_role.lambda (expand) -->
<g id="edge5" class="edge"><title>[root] aws_iam_role_policy.lambda_policy (expand)&#45;&gt;[root] aws_iam_role.lambda (expand)</title>
<path fill="none" stroke="black" d="M241.965,-287.776C264.53,-269.216 302.086,-239.221 336.364,-216 352.176,-205.288 370.213,-194.419 385.966,-185.335"/>
<polygon fill="black" stroke="black" points="387.995,-188.207 394.943,-180.208 384.524,-182.128 387.995,-188.207"/>
</g>
<!-- [root] aws_sqs_queue.queue (expand) -->
<g id="node9" class="node"><title>[root] aws_sqs_queue.queue (expand)</title>
<polygon fill="none" stroke="black" points="261.864,-252 118.864,-252 118.864,-216 261.864,-216 261.864,-252"/>
<text text-anchor="middle" x="190.364" y="-230.3" font-family="Times New Roman,serif" font-size="14.00">aws_sqs_queue.queue</text>
</g>
<!-- [root] aws_iam_role_policy.lambda_policy (expand)&#45;&gt;[root] aws_sqs_queue.queue (expand) -->
<g id="edge6" class="edge"><title>[root] aws_iam_role_policy.lambda_policy (expand)&#45;&gt;[root] aws_sqs_queue.queue (expand)</title>
<path fill="none" stroke="black" d="M213.701,-287.697C210.172,-279.728 205.908,-270.1 201.995,-261.264"/>
<polygon fill="black" stroke="black" points="205.188,-259.831 197.939,-252.104 198.788,-262.665 205.188,-259.831"/>
</g>
<!-- [root] aws_iam_role_policy.step_function_policy (expand) -->
<g id="node4" class="node"><title>[root] aws_iam_role_policy.step_function_policy (expand)</title>
<polygon fill="none" stroke="black" points="884.364,-324 626.364,-324 626.364,-288 884.364,-288 884.364,-324"/>
<text text-anchor="middle" x="755.364" y="-302.3" font-family="Times New Roman,serif" font-size="14.00">aws_iam_role_policy.step_function_policy</text>
</g>
<!-- [root] aws_iam_role_policy.step_function_policy (expand)&#45;&gt;[root] aws_iam_role.step_function (expand) -->
<g id="edge7" class="edge"><title>[root] aws_iam_role_policy.step_function_policy (expand)&#45;&gt;[root] aws_iam_role.step_function (expand)</title>
<path fill="none" stroke="black" d="M825.452,-287.929C843.446,-280.036 860.712,-268.579 871.364,-252 880.013,-238.539 881.534,-228.352 871.364,-216 860.05,-202.259 770.656,-186.624 697.584,-175.917"/>
<polygon fill="black" stroke="black" points="697.79,-172.41 687.392,-174.439 696.786,-179.338 697.79,-172.41"/>
</g>
<!-- [root] aws_lambda_function.recv_sqs_lambda (expand) -->
<g id="node5" class="node"><title>[root] aws_lambda_function.recv_sqs_lambda (expand)</title>
<polygon fill="none" stroke="black" points="862.364,-252 620.364,-252 620.364,-216 862.364,-216 862.364,-252"/>
<text text-anchor="middle" x="741.364" y="-230.3" font-family="Times New Roman,serif" font-size="14.00">aws_lambda_function.recv_sqs_lambda</text>
</g>
<!-- [root] aws_iam_role_policy.step_function_policy (expand)&#45;&gt;[root] aws_lambda_function.recv_sqs_lambda (expand) -->
<g id="edge8" class="edge"><title>[root] aws_iam_role_policy.step_function_policy (expand)&#45;&gt;[root] aws_lambda_function.recv_sqs_lambda (expand)</title>
<path fill="none" stroke="black" d="M751.903,-287.697C750.361,-279.983 748.507,-270.712 746.787,-262.112"/>
<polygon fill="black" stroke="black" points="750.178,-261.224 744.785,-252.104 743.314,-262.597 750.178,-261.224"/>
</g>
<!-- [root] aws_lambda_function.send_sqs_lambda (expand) -->
<g id="node6" class="node"><title>[root] aws_lambda_function.send_sqs_lambda (expand)</title>
<polygon fill="none" stroke="black" points="601.864,-252 356.864,-252 356.864,-216 601.864,-216 601.864,-252"/>
<text text-anchor="middle" x="479.364" y="-230.3" font-family="Times New Roman,serif" font-size="14.00">aws_lambda_function.send_sqs_lambda</text>
</g>
<!-- [root] aws_iam_role_policy.step_function_policy (expand)&#45;&gt;[root] aws_lambda_function.send_sqs_lambda (expand) -->
<g id="edge9" class="edge"><title>[root] aws_iam_role_policy.step_function_policy (expand)&#45;&gt;[root] aws_lambda_function.send_sqs_lambda (expand)</title>
<path fill="none" stroke="black" d="M688.2,-287.966C648.463,-277.887 597.975,-265.082 556.596,-254.588"/>
<polygon fill="black" stroke="black" points="557.383,-251.177 546.829,-252.111 555.662,-257.962 557.383,-251.177"/>
</g>
<!-- [root] aws_lambda_function.recv_sqs_lambda (expand)&#45;&gt;[root] aws_iam_role.lambda (expand) -->
<g id="edge10" class="edge"><title>[root] aws_lambda_function.recv_sqs_lambda (expand)&#45;&gt;[root] aws_iam_role.lambda (expand)</title>
<path fill="none" stroke="black" d="M664.709,-215.966C616.408,-205.232 554.19,-191.406 505.435,-180.571"/>
<polygon fill="black" stroke="black" points="506.08,-177.129 495.559,-178.377 504.561,-183.963 506.08,-177.129"/>
</g>
<!-- [root] data.archive_file.recv_sqs_lambda_zip (expand) -->
<g id="node10" class="node"><title>[root] data.archive_file.recv_sqs_lambda_zip (expand)</title>
<polygon fill="none" stroke="black" points="1231.36,-180 997.364,-180 997.364,-144 1231.36,-144 1231.36,-180"/>
<text text-anchor="middle" x="1114.36" y="-158.3" font-family="Times New Roman,serif" font-size="14.00">data.archive_file.recv_sqs_lambda_zip</text>
</g>
<!-- [root] aws_lambda_function.recv_sqs_lambda (expand)&#45;&gt;[root] data.archive_file.recv_sqs_lambda_zip (expand) -->
<g id="edge11" class="edge"><title>[root] aws_lambda_function.recv_sqs_lambda (expand)&#45;&gt;[root] data.archive_file.recv_sqs_lambda_zip (expand)</title>
<path fill="none" stroke="black" d="M832.133,-215.966C886.957,-205.677 956.923,-192.547 1013.48,-181.933"/>
<polygon fill="black" stroke="black" points="1014.33,-185.335 1023.51,-180.05 1013.04,-178.455 1014.33,-185.335"/>
</g>
<!-- [root] aws_lambda_function.send_sqs_lambda (expand)&#45;&gt;[root] aws_iam_role.lambda (expand) -->
<g id="edge12" class="edge"><title>[root] aws_lambda_function.send_sqs_lambda (expand)&#45;&gt;[root] aws_iam_role.lambda (expand)</title>
<path fill="none" stroke="black" d="M466.263,-215.697C459.973,-207.389 452.317,-197.277 445.399,-188.141"/>
<polygon fill="black" stroke="black" points="448.141,-185.964 439.314,-180.104 442.56,-190.19 448.141,-185.964"/>
</g>
<!-- [root] data.archive_file.send_sqs_lambda_zip (expand) -->
<g id="node11" class="node"><title>[root] data.archive_file.send_sqs_lambda_zip (expand)</title>
<polygon fill="none" stroke="black" points="979.364,-180 743.364,-180 743.364,-144 979.364,-144 979.364,-180"/>
<text text-anchor="middle" x="861.364" y="-158.3" font-family="Times New Roman,serif" font-size="14.00">data.archive_file.send_sqs_lambda_zip</text>
</g>
<!-- [root] aws_lambda_function.send_sqs_lambda (expand)&#45;&gt;[root] data.archive_file.send_sqs_lambda_zip (expand) -->
<g id="edge13" class="edge"><title>[root] aws_lambda_function.send_sqs_lambda (expand)&#45;&gt;[root] data.archive_file.send_sqs_lambda_zip (expand)</title>
<path fill="none" stroke="black" d="M572.323,-215.966C628.586,-205.656 700.421,-192.492 758.402,-181.867"/>
<polygon fill="black" stroke="black" points="759.114,-185.295 768.319,-180.05 757.852,-178.41 759.114,-185.295"/>
</g>
<!-- [root] aws_sfn_state_machine.sfn_state_machine (expand) -->
<g id="node7" class="node"><title>[root] aws_sfn_state_machine.sfn_state_machine (expand)</title>
<polygon fill="none" stroke="black" points="607.864,-324 350.864,-324 350.864,-288 607.864,-288 607.864,-324"/>
<text text-anchor="middle" x="479.364" y="-302.3" font-family="Times New Roman,serif" font-size="14.00">aws_sfn_state_machine.sfn_state_machine</text>
</g>
<!-- [root] aws_sfn_state_machine.sfn_state_machine (expand)&#45;&gt;[root] aws_iam_role.step_function (expand) -->
<g id="edge14" class="edge"><title>[root] aws_sfn_state_machine.sfn_state_machine (expand)&#45;&gt;[root] aws_iam_role.step_function (expand)</title>
<path fill="none" stroke="black" d="M394.694,-287.936C376.11,-280.102 358.637,-268.673 347.364,-252 338.403,-238.745 337.277,-228.42 347.364,-216 352.521,-209.65 433.899,-193.337 502.988,-180.471"/>
<polygon fill="black" stroke="black" points="503.887,-183.864 513.081,-178.6 502.611,-176.982 503.887,-183.864"/>
</g>
<!-- [root] aws_sfn_state_machine.sfn_state_machine (expand)&#45;&gt;[root] aws_lambda_function.recv_sqs_lambda (expand) -->
<g id="edge15" class="edge"><title>[root] aws_sfn_state_machine.sfn_state_machine (expand)&#45;&gt;[root] aws_lambda_function.recv_sqs_lambda (expand)</title>
<path fill="none" stroke="black" d="M543.121,-287.966C580.684,-277.93 628.365,-265.19 667.552,-254.721"/>
<polygon fill="black" stroke="black" points="668.563,-258.073 677.321,-252.111 666.756,-251.311 668.563,-258.073"/>
</g>
<!-- [root] aws_sfn_state_machine.sfn_state_machine (expand)&#45;&gt;[root] aws_lambda_function.send_sqs_lambda (expand) -->
<g id="edge16" class="edge"><title>[root] aws_sfn_state_machine.sfn_state_machine (expand)&#45;&gt;[root] aws_lambda_function.send_sqs_lambda (expand)</title>
<path fill="none" stroke="black" d="M479.364,-287.697C479.364,-279.983 479.364,-270.712 479.364,-262.112"/>
<polygon fill="black" stroke="black" points="482.864,-262.104 479.364,-252.104 475.864,-262.104 482.864,-262.104"/>
</g>
<!-- [root] aws_sqs_queue.deadletter_queue (expand) -->
<g id="node8" class="node"><title>[root] aws_sqs_queue.deadletter_queue (expand)</title>
<polygon fill="none" stroke="black" points="339.364,-180 135.364,-180 135.364,-144 339.364,-144 339.364,-180"/>
<text text-anchor="middle" x="237.364" y="-158.3" font-family="Times New Roman,serif" font-size="14.00">aws_sqs_queue.deadletter_queue</text>
</g>
<!-- [root] aws_sqs_queue.deadletter_queue (expand)&#45;&gt;[root] provider[&quot;registry.terraform.io/hashicorp/aws&quot;] -->
<g id="edge17" class="edge"><title>[root] aws_sqs_queue.deadletter_queue (expand)&#45;&gt;[root] provider[&quot;registry.terraform.io/hashicorp/aws&quot;]</title>
<path fill="none" stroke="black" d="M242.308,-143.697C244.536,-135.898 247.219,-126.509 249.699,-117.829"/>
<polygon fill="black" stroke="black" points="253.095,-118.681 252.477,-108.104 246.364,-116.758 253.095,-118.681"/>
</g>
<!-- [root] aws_sqs_queue.deadletter_queue (expand)&#45;&gt;[root] var.obj_prefix -->
<g id="edge18" class="edge"><title>[root] aws_sqs_queue.deadletter_queue (expand)&#45;&gt;[root] var.obj_prefix</title>
<path fill="none" stroke="black" d="M339.51,-144.791C391.752,-135.851 456.463,-123.78 522.776,-108.01"/>
<polygon fill="black" stroke="black" points="523.665,-111.397 532.57,-105.657 522.029,-104.59 523.665,-111.397"/>
</g>
<!-- [root] aws_sqs_queue.queue (expand)&#45;&gt;[root] aws_sqs_queue.deadletter_queue (expand) -->
<g id="edge19" class="edge"><title>[root] aws_sqs_queue.queue (expand)&#45;&gt;[root] aws_sqs_queue.deadletter_queue (expand)</title>
<path fill="none" stroke="black" d="M201.982,-215.697C207.503,-207.474 214.211,-197.483 220.296,-188.421"/>
<polygon fill="black" stroke="black" points="223.211,-190.358 225.88,-180.104 217.4,-186.456 223.211,-190.358"/>
</g>
<!-- [root] provider[&quot;registry.terraform.io/hashicorp/archive&quot;] -->
<g id="node12" class="node"><title>[root] provider[&quot;registry.terraform.io/hashicorp/archive&quot;]</title>
<polygon fill="none" stroke="black" points="1016.36,-108 742.546,-90 1016.36,-72 1290.18,-90 1016.36,-108"/>
<text text-anchor="middle" x="1016.36" y="-86.3" font-family="Times New Roman,serif" font-size="14.00">provider[&quot;registry.terraform.io/hashicorp/archive&quot;]</text>
</g>
<!-- [root] data.archive_file.recv_sqs_lambda_zip (expand)&#45;&gt;[root] provider[&quot;registry.terraform.io/hashicorp/archive&quot;] -->
<g id="edge20" class="edge"><title>[root] data.archive_file.recv_sqs_lambda_zip (expand)&#45;&gt;[root] provider[&quot;registry.terraform.io/hashicorp/archive&quot;]</title>
<path fill="none" stroke="black" d="M1090.39,-143.876C1077.25,-134.491 1060.83,-122.761 1046.79,-112.736"/>
<polygon fill="black" stroke="black" points="1048.59,-109.715 1038.41,-106.75 1044.52,-115.411 1048.59,-109.715"/>
</g>
<!-- [root] data.archive_file.send_sqs_lambda_zip (expand)&#45;&gt;[root] provider[&quot;registry.terraform.io/hashicorp/archive&quot;] -->
<g id="edge21" class="edge"><title>[root] data.archive_file.send_sqs_lambda_zip (expand)&#45;&gt;[root] provider[&quot;registry.terraform.io/hashicorp/archive&quot;]</title>
<path fill="none" stroke="black" d="M899.281,-143.876C921.889,-133.666 950.639,-120.682 973.992,-110.136"/>
<polygon fill="black" stroke="black" points="975.633,-113.235 983.306,-105.929 972.752,-106.855 975.633,-113.235"/>
</g>
<!-- [root] var.awsprofile -->
<g id="node14" class="node"><title>[root] var.awsprofile</title>
<polygon fill="none" stroke="black" points="247.864,-36 158.864,-36 158.864,-0 253.864,-0 253.864,-30 247.864,-36"/>
<polyline fill="none" stroke="black" points="247.864,-36 247.864,-30 "/>
<polyline fill="none" stroke="black" points="253.864,-30 247.864,-30 "/>
<text text-anchor="middle" x="206.364" y="-14.3" font-family="Times New Roman,serif" font-size="14.00">var.awsprofile</text>
</g>
<!-- [root] provider[&quot;registry.terraform.io/hashicorp/aws&quot;]&#45;&gt;[root] var.awsprofile -->
<g id="edge30" class="edge"><title>[root] provider[&quot;registry.terraform.io/hashicorp/aws&quot;]&#45;&gt;[root] var.awsprofile</title>
<path fill="none" stroke="black" d="M245.535,-72.7646C239.408,-64.3538 231.784,-53.8904 224.896,-44.4356"/>
<polygon fill="black" stroke="black" points="227.557,-42.1453 218.84,-36.1239 221.9,-46.2673 227.557,-42.1453"/>
</g>
<!-- [root] var.region -->
<g id="node16" class="node"><title>[root] var.region</title>
<polygon fill="none" stroke="black" points="338.364,-36 272.364,-36 272.364,-0 344.364,-0 344.364,-30 338.364,-36"/>
<polyline fill="none" stroke="black" points="338.364,-36 338.364,-30 "/>
<polyline fill="none" stroke="black" points="344.364,-30 338.364,-30 "/>
<text text-anchor="middle" x="308.364" y="-14.3" font-family="Times New Roman,serif" font-size="14.00">var.region</text>
</g>
<!-- [root] provider[&quot;registry.terraform.io/hashicorp/aws&quot;]&#45;&gt;[root] var.region -->
<g id="edge31" class="edge"><title>[root] provider[&quot;registry.terraform.io/hashicorp/aws&quot;]&#45;&gt;[root] var.region</title>
<path fill="none" stroke="black" d="M269.193,-72.7646C275.321,-64.3538 282.944,-53.8904 289.832,-44.4356"/>
<polygon fill="black" stroke="black" points="292.828,-46.2673 295.888,-36.1239 287.171,-42.1453 292.828,-46.2673"/>
</g>
<!-- [root] meta.count&#45;boundary (EachMode fixup) -->
<g id="node17" class="node"><title>[root] meta.count&#45;boundary (EachMode fixup)</title>
<ellipse fill="none" stroke="black" cx="324.364" cy="-378" rx="180.868" ry="18"/>
<text text-anchor="middle" x="324.364" y="-374.3" font-family="Times New Roman,serif" font-size="14.00">[root] meta.count&#45;boundary (EachMode fixup)</text>
</g>
<!-- [root] meta.count&#45;boundary (EachMode fixup)&#45;&gt;[root] aws_iam_role_policy.lambda_policy (expand) -->
<g id="edge22" class="edge"><title>[root] meta.count&#45;boundary (EachMode fixup)&#45;&gt;[root] aws_iam_role_policy.lambda_policy (expand)</title>
<path fill="none" stroke="black" d="M299.431,-360.055C286.118,-351.008 269.545,-339.744 255.098,-329.926"/>
<polygon fill="black" stroke="black" points="256.663,-326.758 246.425,-324.032 252.728,-332.547 256.663,-326.758"/>
</g>
<!-- [root] meta.count&#45;boundary (EachMode fixup)&#45;&gt;[root] aws_iam_role_policy.step_function_policy (expand) -->
<g id="edge23" class="edge"><title>[root] meta.count&#45;boundary (EachMode fixup)&#45;&gt;[root] aws_iam_role_policy.step_function_policy (expand)</title>
<path fill="none" stroke="black" d="M414.453,-362.368C480.076,-351.71 569.495,-337.188 640.289,-325.69"/>
<polygon fill="black" stroke="black" points="641.285,-329.074 650.594,-324.016 640.162,-322.164 641.285,-329.074"/>
</g>
<!-- [root] meta.count&#45;boundary (EachMode fixup)&#45;&gt;[root] aws_sfn_state_machine.sfn_state_machine (expand) -->
<g id="edge24" class="edge"><title>[root] meta.count&#45;boundary (EachMode fixup)&#45;&gt;[root] aws_sfn_state_machine.sfn_state_machine (expand)</title>
<path fill="none" stroke="black" d="M361.49,-360.233C382.744,-350.635 409.617,-338.499 432.336,-328.239"/>
<polygon fill="black" stroke="black" points="433.791,-331.422 441.464,-324.116 430.91,-325.042 433.791,-331.422"/>
</g>
<!-- [root] provider[&quot;registry.terraform.io/hashicorp/archive&quot;] (close) -->
<g id="node18" class="node"><title>[root] provider[&quot;registry.terraform.io/hashicorp/archive&quot;] (close)</title>
<ellipse fill="none" stroke="black" cx="1162.36" cy="-234" rx="244.257" ry="18"/>
<text text-anchor="middle" x="1162.36" y="-230.3" font-family="Times New Roman,serif" font-size="14.00">[root] provider[&quot;registry.terraform.io/hashicorp/archive&quot;] (close)</text>
</g>
<!-- [root] provider[&quot;registry.terraform.io/hashicorp/archive&quot;] (close)&#45;&gt;[root] data.archive_file.recv_sqs_lambda_zip (expand) -->
<g id="edge25" class="edge"><title>[root] provider[&quot;registry.terraform.io/hashicorp/archive&quot;] (close)&#45;&gt;[root] data.archive_file.recv_sqs_lambda_zip (expand)</title>
<path fill="none" stroke="black" d="M1150.5,-215.697C1144.86,-207.474 1138.01,-197.483 1131.8,-188.421"/>
<polygon fill="black" stroke="black" points="1134.63,-186.372 1126.09,-180.104 1128.86,-190.331 1134.63,-186.372"/>
</g>
<!-- [root] provider[&quot;registry.terraform.io/hashicorp/archive&quot;] (close)&#45;&gt;[root] data.archive_file.send_sqs_lambda_zip (expand) -->
<g id="edge26" class="edge"><title>[root] provider[&quot;registry.terraform.io/hashicorp/archive&quot;] (close)&#45;&gt;[root] data.archive_file.send_sqs_lambda_zip (expand)</title>
<path fill="none" stroke="black" d="M1092.17,-216.676C1048.07,-206.42 990.957,-193.138 944.579,-182.352"/>
<polygon fill="black" stroke="black" points="945.085,-178.877 934.552,-180.021 943.5,-185.695 945.085,-178.877"/>
</g>
<!-- [root] provider[&quot;registry.terraform.io/hashicorp/aws&quot;] (close) -->
<g id="node19" class="node"><title>[root] provider[&quot;registry.terraform.io/hashicorp/aws&quot;] (close)</title>
<ellipse fill="none" stroke="black" cx="755.364" cy="-378" rx="232.859" ry="18"/>
<text text-anchor="middle" x="755.364" y="-374.3" font-family="Times New Roman,serif" font-size="14.00">[root] provider[&quot;registry.terraform.io/hashicorp/aws&quot;] (close)</text>
</g>
<!-- [root] provider[&quot;registry.terraform.io/hashicorp/aws&quot;] (close)&#45;&gt;[root] aws_iam_role_policy.lambda_policy (expand) -->
<g id="edge27" class="edge"><title>[root] provider[&quot;registry.terraform.io/hashicorp/aws&quot;] (close)&#45;&gt;[root] aws_iam_role_policy.lambda_policy (expand)</title>
<path fill="none" stroke="black" d="M637.978,-362.398C557.657,-352.305 448.438,-338.385 342.719,-324.174"/>
<polygon fill="black" stroke="black" points="342.878,-320.664 332.5,-322.798 341.944,-327.601 342.878,-320.664"/>
</g>
<!-- [root] provider[&quot;registry.terraform.io/hashicorp/aws&quot;] (close)&#45;&gt;[root] aws_iam_role_policy.step_function_policy (expand) -->
<g id="edge28" class="edge"><title>[root] provider[&quot;registry.terraform.io/hashicorp/aws&quot;] (close)&#45;&gt;[root] aws_iam_role_policy.step_function_policy (expand)</title>
<path fill="none" stroke="black" d="M755.364,-359.697C755.364,-351.983 755.364,-342.712 755.364,-334.112"/>
<polygon fill="black" stroke="black" points="758.864,-334.104 755.364,-324.104 751.864,-334.104 758.864,-334.104"/>
</g>
<!-- [root] provider[&quot;registry.terraform.io/hashicorp/aws&quot;] (close)&#45;&gt;[root] aws_sfn_state_machine.sfn_state_machine (expand) -->
<g id="edge29" class="edge"><title>[root] provider[&quot;registry.terraform.io/hashicorp/aws&quot;] (close)&#45;&gt;[root] aws_sfn_state_machine.sfn_state_machine (expand)</title>
<path fill="none" stroke="black" d="M691.003,-360.676C650.807,-350.482 598.824,-337.298 556.436,-326.547"/>
<polygon fill="black" stroke="black" points="557.269,-323.148 546.716,-324.082 555.548,-329.933 557.269,-323.148"/>
</g>
<!-- [root] root -->
<g id="node20" class="node"><title>[root] root</title>
<ellipse fill="none" stroke="black" cx="755.364" cy="-450" rx="49.2915" ry="18"/>
<text text-anchor="middle" x="755.364" y="-446.3" font-family="Times New Roman,serif" font-size="14.00">[root] root</text>
</g>
<!-- [root] root&#45;&gt;[root] meta.count&#45;boundary (EachMode fixup) -->
<g id="edge32" class="edge"><title>[root] root&#45;&gt;[root] meta.count&#45;boundary (EachMode fixup)</title>
<path fill="none" stroke="black" d="M711.265,-441.838C644.264,-430.956 515.056,-409.971 424.454,-395.256"/>
<polygon fill="black" stroke="black" points="424.865,-391.777 414.433,-393.628 423.742,-398.686 424.865,-391.777"/>
</g>
<!-- [root] root&#45;&gt;[root] provider[&quot;registry.terraform.io/hashicorp/archive&quot;] (close) -->
<g id="edge33" class="edge"><title>[root] root&#45;&gt;[root] provider[&quot;registry.terraform.io/hashicorp/archive&quot;] (close)</title>
<path fill="none" stroke="black" d="M804.008,-446.225C854.915,-441.578 935.841,-429.161 997.364,-396 1060.8,-361.806 1116.63,-296.061 1144.17,-260.067"/>
<polygon fill="black" stroke="black" points="1147.01,-262.109 1150.24,-252.016 1141.42,-257.896 1147.01,-262.109"/>
</g>
<!-- [root] root&#45;&gt;[root] provider[&quot;registry.terraform.io/hashicorp/aws&quot;] (close) -->
<g id="edge34" class="edge"><title>[root] root&#45;&gt;[root] provider[&quot;registry.terraform.io/hashicorp/aws&quot;] (close)</title>
<path fill="none" stroke="black" d="M755.364,-431.697C755.364,-423.983 755.364,-414.712 755.364,-406.112"/>
<polygon fill="black" stroke="black" points="758.864,-406.104 755.364,-396.104 751.864,-406.104 758.864,-406.104"/>
</g>
</g>
</svg>
