<?xml version="1.0" encoding="UTF-8" standalone="no"?>
<!DOCTYPE svg PUBLIC "-//W3C//DTD SVG 1.1//EN"
 "http://www.w3.org/Graphics/SVG/1.1/DTD/svg11.dtd">
<!-- Generated by graphviz version 2.38.0 (20140413.2041)
 -->
<!-- Title: %3 Pages: 1 -->
<svg width="1454pt" height="476pt"
 viewBox="0.00 0.00 1453.50 476.00" xmlns="http://www.w3.org/2000/svg" xmlns:xlink="http://www.w3.org/1999/xlink">
<g id="graph0" class="graph" transform="scale(1 1) rotate(0) translate(4 472)">
<title>%3</title>
<polygon fill="white" stroke="none" points="-4,4 -4,-472 1449.5,-472 1449.5,4 -4,4"/>
<!-- [root] aws_glue_catalog_database.glue_catalog_db (expand) -->
<g id="node1" class="node"><title>[root] aws_glue_catalog_database.glue_catalog_db (expand)</title>
<polygon fill="none" stroke="black" points="598,-180 330,-180 330,-144 598,-144 598,-180"/>
<text text-anchor="middle" x="464" y="-158.3" font-family="Times New Roman,serif" font-size="14.00">aws_glue_catalog_database.glue_catalog_db</text>
</g>
<!-- [root] provider[&quot;registry.terraform.io/hashicorp/aws&quot;] -->
<g id="node17" class="node"><title>[root] provider[&quot;registry.terraform.io/hashicorp/aws&quot;]</title>
<polygon fill="none" stroke="black" points="758,-108 500.772,-90 758,-72 1015.23,-90 758,-108"/>
<text text-anchor="middle" x="758" y="-86.3" font-family="Times New Roman,serif" font-size="14.00">provider[&quot;registry.terraform.io/hashicorp/aws&quot;]</text>
</g>
<!-- [root] aws_glue_catalog_database.glue_catalog_db (expand)&#45;&gt;[root] provider[&quot;registry.terraform.io/hashicorp/aws&quot;] -->
<g id="edge1" class="edge"><title>[root] aws_glue_catalog_database.glue_catalog_db (expand)&#45;&gt;[root] provider[&quot;registry.terraform.io/hashicorp/aws&quot;]</title>
<path fill="none" stroke="black" d="M535.545,-143.966C583.525,-132.542 646.22,-117.614 692.819,-106.519"/>
<polygon fill="black" stroke="black" points="693.887,-109.863 702.804,-104.142 692.265,-103.053 693.887,-109.863"/>
</g>
<!-- [root] var.obj_prefix -->
<g id="node19" class="node"><title>[root] var.obj_prefix</title>
<polygon fill="none" stroke="black" points="476.5,-108 387.5,-108 387.5,-72 482.5,-72 482.5,-102 476.5,-108"/>
<polyline fill="none" stroke="black" points="476.5,-108 476.5,-102 "/>
<polyline fill="none" stroke="black" points="482.5,-102 476.5,-102 "/>
<text text-anchor="middle" x="435" y="-86.3" font-family="Times New Roman,serif" font-size="14.00">var.obj_prefix</text>
</g>
<!-- [root] aws_glue_catalog_database.glue_catalog_db (expand)&#45;&gt;[root] var.obj_prefix -->
<g id="edge2" class="edge"><title>[root] aws_glue_catalog_database.glue_catalog_db (expand)&#45;&gt;[root] var.obj_prefix</title>
<path fill="none" stroke="black" d="M456.831,-143.697C453.565,-135.813 449.626,-126.304 445.998,-117.546"/>
<polygon fill="black" stroke="black" points="449.147,-116.003 442.086,-108.104 442.68,-118.683 449.147,-116.003"/>
</g>
<!-- [root] aws_glue_crawler.glue_crawler (expand) -->
<g id="node2" class="node"><title>[root] aws_glue_crawler.glue_crawler (expand)</title>
<polygon fill="none" stroke="black" points="320.5,-252 129.5,-252 129.5,-216 320.5,-216 320.5,-252"/>
<text text-anchor="middle" x="225" y="-230.3" font-family="Times New Roman,serif" font-size="14.00">aws_glue_crawler.glue_crawler</text>
</g>
<!-- [root] aws_glue_crawler.glue_crawler (expand)&#45;&gt;[root] aws_glue_catalog_database.glue_catalog_db (expand) -->
<g id="edge3" class="edge"><title>[root] aws_glue_crawler.glue_crawler (expand)&#45;&gt;[root] aws_glue_catalog_database.glue_catalog_db (expand)</title>
<path fill="none" stroke="black" d="M283.16,-215.966C317.135,-206.015 360.185,-193.406 395.757,-182.987"/>
<polygon fill="black" stroke="black" points="396.966,-186.281 405.579,-180.111 394.998,-179.563 396.966,-186.281"/>
</g>
<!-- [root] aws_iam_role.glue_role (expand) -->
<g id="node10" class="node"><title>[root] aws_iam_role.glue_role (expand)</title>
<polygon fill="none" stroke="black" points="803.5,-180 654.5,-180 654.5,-144 803.5,-144 803.5,-180"/>
<text text-anchor="middle" x="729" y="-158.3" font-family="Times New Roman,serif" font-size="14.00">aws_iam_role.glue_role</text>
</g>
<!-- [root] aws_glue_crawler.glue_crawler (expand)&#45;&gt;[root] aws_iam_role.glue_role (expand) -->
<g id="edge4" class="edge"><title>[root] aws_glue_crawler.glue_crawler (expand)&#45;&gt;[root] aws_iam_role.glue_role (expand)</title>
<path fill="none" stroke="black" d="M320.55,-217.4C323.737,-216.921 326.894,-216.453 330,-216 452.846,-198.077 483.964,-196.567 607,-180 619.124,-178.367 631.922,-176.616 644.487,-174.879"/>
<polygon fill="black" stroke="black" points="645.072,-178.332 654.497,-173.493 644.111,-171.398 645.072,-178.332"/>
</g>
<!-- [root] aws_s3_bucket.glue_data_bucket (expand) -->
<g id="node13" class="node"><title>[root] aws_s3_bucket.glue_data_bucket (expand)</title>
<polygon fill="none" stroke="black" points="274,-180 68,-180 68,-144 274,-144 274,-180"/>
<text text-anchor="middle" x="171" y="-158.3" font-family="Times New Roman,serif" font-size="14.00">aws_s3_bucket.glue_data_bucket</text>
</g>
<!-- [root] aws_glue_crawler.glue_crawler (expand)&#45;&gt;[root] aws_s3_bucket.glue_data_bucket (expand) -->
<g id="edge5" class="edge"><title>[root] aws_glue_crawler.glue_crawler (expand)&#45;&gt;[root] aws_s3_bucket.glue_data_bucket (expand)</title>
<path fill="none" stroke="black" d="M211.652,-215.697C205.243,-207.389 197.442,-197.277 190.394,-188.141"/>
<polygon fill="black" stroke="black" points="193.074,-185.884 184.195,-180.104 187.532,-190.16 193.074,-185.884"/>
</g>
<!-- [root] aws_glue_job.glue_job_iris_part1 (expand) -->
<g id="node3" class="node"><title>[root] aws_glue_job.glue_job_iris_part1 (expand)</title>
<polygon fill="none" stroke="black" points="779,-252 573,-252 573,-216 779,-216 779,-252"/>
<text text-anchor="middle" x="676" y="-230.3" font-family="Times New Roman,serif" font-size="14.00">aws_glue_job.glue_job_iris_part1</text>
</g>
<!-- [root] aws_glue_job.glue_job_iris_part1 (expand)&#45;&gt;[root] aws_iam_role.glue_role (expand) -->
<g id="edge6" class="edge"><title>[root] aws_glue_job.glue_job_iris_part1 (expand)&#45;&gt;[root] aws_iam_role.glue_role (expand)</title>
<path fill="none" stroke="black" d="M689.101,-215.697C695.391,-207.389 703.047,-197.277 709.965,-188.141"/>
<polygon fill="black" stroke="black" points="712.804,-190.19 716.05,-180.104 707.223,-185.964 712.804,-190.19"/>
</g>
<!-- [root] aws_s3_bucket.glue_code_bucket (expand) -->
<g id="node12" class="node"><title>[root] aws_s3_bucket.glue_code_bucket (expand)</title>
<polygon fill="none" stroke="black" points="1226,-180 1016,-180 1016,-144 1226,-144 1226,-180"/>
<text text-anchor="middle" x="1121" y="-158.3" font-family="Times New Roman,serif" font-size="14.00">aws_s3_bucket.glue_code_bucket</text>
</g>
<!-- [root] aws_glue_job.glue_job_iris_part1 (expand)&#45;&gt;[root] aws_s3_bucket.glue_code_bucket (expand) -->
<g id="edge7" class="edge"><title>[root] aws_glue_job.glue_job_iris_part1 (expand)&#45;&gt;[root] aws_s3_bucket.glue_code_bucket (expand)</title>
<path fill="none" stroke="black" d="M779.21,-216.765C846.875,-206.121 935.436,-192.19 1005.46,-181.176"/>
<polygon fill="black" stroke="black" points="1006.31,-184.584 1015.65,-179.572 1005.22,-177.669 1006.31,-184.584"/>
</g>
<!-- [root] aws_glue_job.glue_job_iris_part2 (expand) -->
<g id="node4" class="node"><title>[root] aws_glue_job.glue_job_iris_part2 (expand)</title>
<polygon fill="none" stroke="black" points="1003,-252 797,-252 797,-216 1003,-216 1003,-252"/>
<text text-anchor="middle" x="900" y="-230.3" font-family="Times New Roman,serif" font-size="14.00">aws_glue_job.glue_job_iris_part2</text>
</g>
<!-- [root] aws_glue_job.glue_job_iris_part2 (expand)&#45;&gt;[root] aws_iam_role.glue_role (expand) -->
<g id="edge8" class="edge"><title>[root] aws_glue_job.glue_job_iris_part2 (expand)&#45;&gt;[root] aws_iam_role.glue_role (expand)</title>
<path fill="none" stroke="black" d="M858.169,-215.876C834.584,-206.222 804.94,-194.087 780.001,-183.878"/>
<polygon fill="black" stroke="black" points="781.276,-180.618 770.695,-180.068 778.624,-187.096 781.276,-180.618"/>
</g>
<!-- [root] aws_glue_job.glue_job_iris_part2 (expand)&#45;&gt;[root] aws_s3_bucket.glue_code_bucket (expand) -->
<g id="edge9" class="edge"><title>[root] aws_glue_job.glue_job_iris_part2 (expand)&#45;&gt;[root] aws_s3_bucket.glue_code_bucket (expand)</title>
<path fill="none" stroke="black" d="M953.78,-215.966C984.927,-206.1 1024.32,-193.622 1057.05,-183.255"/>
<polygon fill="black" stroke="black" points="1058.5,-186.467 1066.98,-180.111 1056.39,-179.794 1058.5,-186.467"/>
</g>
<!-- [root] aws_glue_trigger.start_crawler (expand) -->
<g id="node5" class="node"><title>[root] aws_glue_trigger.start_crawler (expand)</title>
<polygon fill="none" stroke="black" points="453.5,-324 266.5,-324 266.5,-288 453.5,-288 453.5,-324"/>
<text text-anchor="middle" x="360" y="-302.3" font-family="Times New Roman,serif" font-size="14.00">aws_glue_trigger.start_crawler</text>
</g>
<!-- [root] aws_glue_trigger.start_crawler (expand)&#45;&gt;[root] aws_glue_crawler.glue_crawler (expand) -->
<g id="edge10" class="edge"><title>[root] aws_glue_trigger.start_crawler (expand)&#45;&gt;[root] aws_glue_crawler.glue_crawler (expand)</title>
<path fill="none" stroke="black" d="M326.975,-287.876C308.915,-278.512 286.355,-266.814 267.049,-256.803"/>
<polygon fill="black" stroke="black" points="268.64,-253.686 258.152,-252.19 265.418,-259.9 268.64,-253.686"/>
</g>
<!-- [root] aws_glue_workflow.glue_workflow (expand) -->
<g id="node8" class="node"><title>[root] aws_glue_workflow.glue_workflow (expand)</title>
<polygon fill="none" stroke="black" points="555,-252 339,-252 339,-216 555,-216 555,-252"/>
<text text-anchor="middle" x="447" y="-230.3" font-family="Times New Roman,serif" font-size="14.00">aws_glue_workflow.glue_workflow</text>
</g>
<!-- [root] aws_glue_trigger.start_crawler (expand)&#45;&gt;[root] aws_glue_workflow.glue_workflow (expand) -->
<g id="edge11" class="edge"><title>[root] aws_glue_trigger.start_crawler (expand)&#45;&gt;[root] aws_glue_workflow.glue_workflow (expand)</title>
<path fill="none" stroke="black" d="M381.506,-287.697C392.463,-278.881 405.946,-268.032 417.825,-258.474"/>
<polygon fill="black" stroke="black" points="420.145,-261.1 425.742,-252.104 415.756,-255.646 420.145,-261.1"/>
</g>
<!-- [root] aws_glue_trigger.start_first (expand) -->
<g id="node6" class="node"><title>[root] aws_glue_trigger.start_first (expand)</title>
<polygon fill="none" stroke="black" points="640,-324 472,-324 472,-288 640,-288 640,-324"/>
<text text-anchor="middle" x="556" y="-302.3" font-family="Times New Roman,serif" font-size="14.00">aws_glue_trigger.start_first</text>
</g>
<!-- [root] aws_glue_trigger.start_first (expand)&#45;&gt;[root] aws_glue_crawler.glue_crawler (expand) -->
<g id="edge12" class="edge"><title>[root] aws_glue_trigger.start_first (expand)&#45;&gt;[root] aws_glue_crawler.glue_crawler (expand)</title>
<path fill="none" stroke="black" d="M475.452,-287.966C427.103,-277.741 365.484,-264.71 315.464,-254.131"/>
<polygon fill="black" stroke="black" points="316.13,-250.695 305.622,-252.05 314.682,-257.543 316.13,-250.695"/>
</g>
<!-- [root] aws_glue_trigger.start_first (expand)&#45;&gt;[root] aws_glue_job.glue_job_iris_part1 (expand) -->
<g id="edge13" class="edge"><title>[root] aws_glue_trigger.start_first (expand)&#45;&gt;[root] aws_glue_job.glue_job_iris_part1 (expand)</title>
<path fill="none" stroke="black" d="M585.355,-287.876C601.045,-278.724 620.557,-267.342 637.454,-257.485"/>
<polygon fill="black" stroke="black" points="639.658,-260.252 646.532,-252.19 636.13,-254.205 639.658,-260.252"/>
</g>
<!-- [root] aws_glue_trigger.start_first (expand)&#45;&gt;[root] aws_glue_workflow.glue_workflow (expand) -->
<g id="edge14" class="edge"><title>[root] aws_glue_trigger.start_first (expand)&#45;&gt;[root] aws_glue_workflow.glue_workflow (expand)</title>
<path fill="none" stroke="black" d="M529.336,-287.876C515.216,-278.808 497.689,-267.552 482.439,-257.759"/>
<polygon fill="black" stroke="black" points="484.073,-254.648 473.767,-252.19 480.29,-260.538 484.073,-254.648"/>
</g>
<!-- [root] aws_glue_trigger.start_second (expand) -->
<g id="node7" class="node"><title>[root] aws_glue_trigger.start_second (expand)</title>
<polygon fill="none" stroke="black" points="845.5,-324 658.5,-324 658.5,-288 845.5,-288 845.5,-324"/>
<text text-anchor="middle" x="752" y="-302.3" font-family="Times New Roman,serif" font-size="14.00">aws_glue_trigger.start_second</text>
</g>
<!-- [root] aws_glue_trigger.start_second (expand)&#45;&gt;[root] aws_glue_job.glue_job_iris_part1 (expand) -->
<g id="edge15" class="edge"><title>[root] aws_glue_trigger.start_second (expand)&#45;&gt;[root] aws_glue_job.glue_job_iris_part1 (expand)</title>
<path fill="none" stroke="black" d="M733.213,-287.697C723.826,-279.05 712.316,-268.449 702.087,-259.027"/>
<polygon fill="black" stroke="black" points="704.297,-256.305 694.57,-252.104 699.555,-261.454 704.297,-256.305"/>
</g>
<!-- [root] aws_glue_trigger.start_second (expand)&#45;&gt;[root] aws_glue_job.glue_job_iris_part2 (expand) -->
<g id="edge16" class="edge"><title>[root] aws_glue_trigger.start_second (expand)&#45;&gt;[root] aws_glue_job.glue_job_iris_part2 (expand)</title>
<path fill="none" stroke="black" d="M788.205,-287.876C808.258,-278.392 833.372,-266.513 854.714,-256.419"/>
<polygon fill="black" stroke="black" points="856.369,-259.508 863.913,-252.068 853.376,-253.18 856.369,-259.508"/>
</g>
<!-- [root] aws_glue_trigger.start_second (expand)&#45;&gt;[root] aws_glue_workflow.glue_workflow (expand) -->
<g id="edge17" class="edge"><title>[root] aws_glue_trigger.start_second (expand)&#45;&gt;[root] aws_glue_workflow.glue_workflow (expand)</title>
<path fill="none" stroke="black" d="M677.779,-287.966C633.506,-277.805 577.158,-264.872 531.224,-254.33"/>
<polygon fill="black" stroke="black" points="531.819,-250.876 521.29,-252.05 530.253,-257.698 531.819,-250.876"/>
</g>
<!-- [root] aws_glue_workflow.glue_workflow (expand)&#45;&gt;[root] provider[&quot;registry.terraform.io/hashicorp/aws&quot;] -->
<g id="edge18" class="edge"><title>[root] aws_glue_workflow.glue_workflow (expand)&#45;&gt;[root] provider[&quot;registry.terraform.io/hashicorp/aws&quot;]</title>
<path fill="none" stroke="black" d="M520.81,-215.898C548.979,-207.524 580.633,-195.774 607,-180 626.965,-168.056 625.779,-157.107 645,-144 665.182,-130.238 689.503,-118.318 710.403,-109.288"/>
<polygon fill="black" stroke="black" points="711.887,-112.46 719.738,-105.345 709.164,-106.012 711.887,-112.46"/>
</g>
<!-- [root] aws_glue_workflow.glue_workflow (expand)&#45;&gt;[root] var.obj_prefix -->
<g id="edge19" class="edge"><title>[root] aws_glue_workflow.glue_workflow (expand)&#45;&gt;[root] var.obj_prefix</title>
<path fill="none" stroke="black" d="M367.732,-215.862C349.387,-208.019 332.03,-196.605 321,-180 312.147,-166.672 312.395,-157.489 321,-144 333.73,-124.044 356.133,-111.484 377.73,-103.636"/>
<polygon fill="black" stroke="black" points="378.861,-106.948 387.23,-100.452 376.636,-100.311 378.861,-106.948"/>
</g>
<!-- [root] aws_iam_policy.glue_policy (expand) -->
<g id="node9" class="node"><title>[root] aws_iam_policy.glue_policy (expand)</title>
<polygon fill="none" stroke="black" points="998,-180 822,-180 822,-144 998,-144 998,-180"/>
<text text-anchor="middle" x="910" y="-158.3" font-family="Times New Roman,serif" font-size="14.00">aws_iam_policy.glue_policy</text>
</g>
<!-- [root] aws_iam_policy.glue_policy (expand)&#45;&gt;[root] provider[&quot;registry.terraform.io/hashicorp/aws&quot;] -->
<g id="edge20" class="edge"><title>[root] aws_iam_policy.glue_policy (expand)&#45;&gt;[root] provider[&quot;registry.terraform.io/hashicorp/aws&quot;]</title>
<path fill="none" stroke="black" d="M872.817,-143.876C850.57,-133.631 822.257,-120.592 799.313,-110.026"/>
<polygon fill="black" stroke="black" points="800.713,-106.817 790.166,-105.813 797.785,-113.175 800.713,-106.817"/>
</g>
<!-- [root] aws_iam_policy.glue_policy (expand)&#45;&gt;[root] var.obj_prefix -->
<g id="edge21" class="edge"><title>[root] aws_iam_policy.glue_policy (expand)&#45;&gt;[root] var.obj_prefix</title>
<path fill="none" stroke="black" d="M821.89,-145.46C818.554,-144.953 815.248,-144.464 812,-144 673.501,-124.215 634.003,-136.006 492.645,-107.909"/>
<polygon fill="black" stroke="black" points="493.233,-104.457 482.738,-105.909 491.847,-111.319 493.233,-104.457"/>
</g>
<!-- [root] aws_iam_role.glue_role (expand)&#45;&gt;[root] provider[&quot;registry.terraform.io/hashicorp/aws&quot;] -->
<g id="edge22" class="edge"><title>[root] aws_iam_role.glue_role (expand)&#45;&gt;[root] provider[&quot;registry.terraform.io/hashicorp/aws&quot;]</title>
<path fill="none" stroke="black" d="M736.169,-143.697C739.519,-135.609 743.578,-125.812 747.283,-116.869"/>
<polygon fill="black" stroke="black" points="750.52,-118.2 751.114,-107.622 744.053,-115.521 750.52,-118.2"/>
</g>
<!-- [root] aws_iam_role.glue_role (expand)&#45;&gt;[root] var.obj_prefix -->
<g id="edge23" class="edge"><title>[root] aws_iam_role.glue_role (expand)&#45;&gt;[root] var.obj_prefix</title>
<path fill="none" stroke="black" d="M654.49,-145.733C610.118,-136.315 552.514,-123.522 492.551,-108.051"/>
<polygon fill="black" stroke="black" points="493.075,-104.571 482.516,-105.442 491.314,-111.345 493.075,-104.571"/>
</g>
<!-- [root] aws_iam_role_policy_attachment.glue_policy_attch (expand) -->
<g id="node11" class="node"><title>[root] aws_iam_role_policy_attachment.glue_policy_attch (expand)</title>
<polygon fill="none" stroke="black" points="1327,-252 1021,-252 1021,-216 1327,-216 1327,-252"/>
<text text-anchor="middle" x="1174" y="-230.3" font-family="Times New Roman,serif" font-size="14.00">aws_iam_role_policy_attachment.glue_policy_attch</text>
</g>
<!-- [root] aws_iam_role_policy_attachment.glue_policy_attch (expand)&#45;&gt;[root] aws_iam_policy.glue_policy (expand) -->
<g id="edge24" class="edge"><title>[root] aws_iam_role_policy_attachment.glue_policy_attch (expand)&#45;&gt;[root] aws_iam_policy.glue_policy (expand)</title>
<path fill="none" stroke="black" d="M1109.76,-215.966C1071.91,-205.93 1023.86,-193.19 984.375,-182.721"/>
<polygon fill="black" stroke="black" points="985.095,-179.291 974.532,-180.111 983.301,-186.057 985.095,-179.291"/>
</g>
<!-- [root] aws_iam_role_policy_attachment.glue_policy_attch (expand)&#45;&gt;[root] aws_iam_role.glue_role (expand) -->
<g id="edge25" class="edge"><title>[root] aws_iam_role_policy_attachment.glue_policy_attch (expand)&#45;&gt;[root] aws_iam_role.glue_role (expand)</title>
<path fill="none" stroke="black" d="M1046.34,-215.968C979.779,-206.673 896.819,-194.446 813.512,-180.039"/>
<polygon fill="black" stroke="black" points="814.067,-176.584 803.616,-178.318 812.868,-183.48 814.067,-176.584"/>
</g>
<!-- [root] aws_s3_bucket.glue_code_bucket (expand)&#45;&gt;[root] provider[&quot;registry.terraform.io/hashicorp/aws&quot;] -->
<g id="edge26" class="edge"><title>[root] aws_s3_bucket.glue_code_bucket (expand)&#45;&gt;[root] provider[&quot;registry.terraform.io/hashicorp/aws&quot;]</title>
<path fill="none" stroke="black" d="M1032.66,-143.966C971.364,-132.144 890.61,-116.572 832.552,-105.376"/>
<polygon fill="black" stroke="black" points="833.193,-101.936 822.712,-103.479 831.868,-108.809 833.193,-101.936"/>
</g>
<!-- [root] aws_s3_bucket.glue_code_bucket (expand)&#45;&gt;[root] var.obj_prefix -->
<g id="edge27" class="edge"><title>[root] aws_s3_bucket.glue_code_bucket (expand)&#45;&gt;[root] var.obj_prefix</title>
<path fill="none" stroke="black" d="M1015.76,-144.999C1012.81,-144.65 1009.88,-144.315 1007,-144 782.142,-119.413 719.514,-148.199 492.59,-107.841"/>
<polygon fill="black" stroke="black" points="493.171,-104.39 482.709,-106.059 491.929,-111.278 493.171,-104.39"/>
</g>
<!-- [root] aws_s3_bucket.glue_data_bucket (expand)&#45;&gt;[root] provider[&quot;registry.terraform.io/hashicorp/aws&quot;] -->
<g id="edge28" class="edge"><title>[root] aws_s3_bucket.glue_data_bucket (expand)&#45;&gt;[root] provider[&quot;registry.terraform.io/hashicorp/aws&quot;]</title>
<path fill="none" stroke="black" d="M274.256,-148.687C382.292,-135.803 550.756,-115.714 657.681,-102.963"/>
<polygon fill="black" stroke="black" points="658.317,-106.412 667.833,-101.753 657.488,-99.4613 658.317,-106.412"/>
</g>
<!-- [root] aws_s3_bucket.glue_data_bucket (expand)&#45;&gt;[root] var.obj_prefix -->
<g id="edge29" class="edge"><title>[root] aws_s3_bucket.glue_data_bucket (expand)&#45;&gt;[root] var.obj_prefix</title>
<path fill="none" stroke="black" d="M235.244,-143.966C278.623,-132.464 335.395,-117.41 377.325,-106.293"/>
<polygon fill="black" stroke="black" points="378.34,-109.645 387.109,-103.699 376.545,-102.878 378.34,-109.645"/>
</g>
<!-- [root] aws_s3_bucket_object.glue_code_part1 (expand) -->
<g id="node14" class="node"><title>[root] aws_s3_bucket_object.glue_code_part1 (expand)</title>
<polygon fill="none" stroke="black" points="1145.5,-324 902.5,-324 902.5,-288 1145.5,-288 1145.5,-324"/>
<text text-anchor="middle" x="1024" y="-302.3" font-family="Times New Roman,serif" font-size="14.00">aws_s3_bucket_object.glue_code_part1</text>
</g>
<!-- [root] aws_s3_bucket_object.glue_code_part1 (expand)&#45;&gt;[root] aws_s3_bucket.glue_code_bucket (expand) -->
<g id="edge30" class="edge"><title>[root] aws_s3_bucket_object.glue_code_part1 (expand)&#45;&gt;[root] aws_s3_bucket.glue_code_bucket (expand)</title>
<path fill="none" stroke="black" d="M1145.73,-291.856C1227.79,-281.734 1323.35,-266.981 1336,-252 1372.39,-208.902 1305.12,-186.341 1236.45,-174.735"/>
<polygon fill="black" stroke="black" points="1236.74,-171.238 1226.31,-173.101 1235.63,-178.149 1236.74,-171.238"/>
</g>
<!-- [root] aws_s3_bucket_object.glue_code_part2 (expand) -->
<g id="node15" class="node"><title>[root] aws_s3_bucket_object.glue_code_part2 (expand)</title>
<polygon fill="none" stroke="black" points="1445.5,-324 1202.5,-324 1202.5,-288 1445.5,-288 1445.5,-324"/>
<text text-anchor="middle" x="1324" y="-302.3" font-family="Times New Roman,serif" font-size="14.00">aws_s3_bucket_object.glue_code_part2</text>
</g>
<!-- [root] aws_s3_bucket_object.glue_code_part2 (expand)&#45;&gt;[root] aws_s3_bucket.glue_code_bucket (expand) -->
<g id="edge31" class="edge"><title>[root] aws_s3_bucket_object.glue_code_part2 (expand)&#45;&gt;[root] aws_s3_bucket.glue_code_bucket (expand)</title>
<path fill="none" stroke="black" d="M1338.82,-287.95C1353.67,-268.718 1372.05,-237.349 1355,-216 1339.46,-196.549 1287.42,-183.708 1236.35,-175.544"/>
<polygon fill="black" stroke="black" points="1236.57,-172.038 1226.16,-173.973 1235.51,-178.956 1236.57,-172.038"/>
</g>
<!-- [root] aws_s3_bucket_object.glue_data_source (expand) -->
<g id="node16" class="node"><title>[root] aws_s3_bucket_object.glue_data_source (expand)</title>
<polygon fill="none" stroke="black" points="248,-324 0,-324 0,-288 248,-288 248,-324"/>
<text text-anchor="middle" x="124" y="-302.3" font-family="Times New Roman,serif" font-size="14.00">aws_s3_bucket_object.glue_data_source</text>
</g>
<!-- [root] aws_s3_bucket_object.glue_data_source (expand)&#45;&gt;[root] aws_s3_bucket.glue_data_bucket (expand) -->
<g id="edge32" class="edge"><title>[root] aws_s3_bucket_object.glue_data_source (expand)&#45;&gt;[root] aws_s3_bucket.glue_data_bucket (expand)</title>
<path fill="none" stroke="black" d="M119.148,-287.894C114.827,-269.436 110.519,-239.527 120,-216 124.349,-205.209 132.062,-195.386 140.194,-187.209"/>
<polygon fill="black" stroke="black" points="142.79,-189.572 147.695,-180.181 138.004,-184.464 142.79,-189.572"/>
</g>
<!-- [root] var.awsprofile -->
<g id="node18" class="node"><title>[root] var.awsprofile</title>
<polygon fill="none" stroke="black" points="748.5,-36 659.5,-36 659.5,-0 754.5,-0 754.5,-30 748.5,-36"/>
<polyline fill="none" stroke="black" points="748.5,-36 748.5,-30 "/>
<polyline fill="none" stroke="black" points="754.5,-30 748.5,-30 "/>
<text text-anchor="middle" x="707" y="-14.3" font-family="Times New Roman,serif" font-size="14.00">var.awsprofile</text>
</g>
<!-- [root] provider[&quot;registry.terraform.io/hashicorp/aws&quot;]&#45;&gt;[root] var.awsprofile -->
<g id="edge47" class="edge"><title>[root] provider[&quot;registry.terraform.io/hashicorp/aws&quot;]&#45;&gt;[root] var.awsprofile</title>
<path fill="none" stroke="black" d="M746.171,-72.7646C740.044,-64.3538 732.42,-53.8904 725.532,-44.4356"/>
<polygon fill="black" stroke="black" points="728.193,-42.1453 719.476,-36.1239 722.536,-46.2673 728.193,-42.1453"/>
</g>
<!-- [root] var.region -->
<g id="node20" class="node"><title>[root] var.region</title>
<polygon fill="none" stroke="black" points="839,-36 773,-36 773,-0 845,-0 845,-30 839,-36"/>
<polyline fill="none" stroke="black" points="839,-36 839,-30 "/>
<polyline fill="none" stroke="black" points="845,-30 839,-30 "/>
<text text-anchor="middle" x="809" y="-14.3" font-family="Times New Roman,serif" font-size="14.00">var.region</text>
</g>
<!-- [root] provider[&quot;registry.terraform.io/hashicorp/aws&quot;]&#45;&gt;[root] var.region -->
<g id="edge48" class="edge"><title>[root] provider[&quot;registry.terraform.io/hashicorp/aws&quot;]&#45;&gt;[root] var.region</title>
<path fill="none" stroke="black" d="M769.829,-72.7646C775.956,-64.3538 783.58,-53.8904 790.468,-44.4356"/>
<polygon fill="black" stroke="black" points="793.464,-46.2673 796.524,-36.1239 787.807,-42.1453 793.464,-46.2673"/>
</g>
<!-- [root] meta.count&#45;boundary (EachMode fixup) -->
<g id="node21" class="node"><title>[root] meta.count&#45;boundary (EachMode fixup)</title>
<ellipse fill="none" stroke="black" cx="574" cy="-378" rx="180.868" ry="18"/>
<text text-anchor="middle" x="574" y="-374.3" font-family="Times New Roman,serif" font-size="14.00">[root] meta.count&#45;boundary (EachMode fixup)</text>
</g>
<!-- [root] meta.count&#45;boundary (EachMode fixup)&#45;&gt;[root] aws_glue_trigger.start_crawler (expand) -->
<g id="edge33" class="edge"><title>[root] meta.count&#45;boundary (EachMode fixup)&#45;&gt;[root] aws_glue_trigger.start_crawler (expand)</title>
<path fill="none" stroke="black" d="M524.097,-360.676C493.652,-350.718 454.487,-337.907 422.054,-327.298"/>
<polygon fill="black" stroke="black" points="422.815,-323.864 412.222,-324.082 420.638,-330.518 422.815,-323.864"/>
</g>
<!-- [root] meta.count&#45;boundary (EachMode fixup)&#45;&gt;[root] aws_glue_trigger.start_first (expand) -->
<g id="edge34" class="edge"><title>[root] meta.count&#45;boundary (EachMode fixup)&#45;&gt;[root] aws_glue_trigger.start_first (expand)</title>
<path fill="none" stroke="black" d="M569.551,-359.697C567.545,-351.898 565.131,-342.509 562.899,-333.829"/>
<polygon fill="black" stroke="black" points="566.278,-332.918 560.398,-324.104 559.499,-334.661 566.278,-332.918"/>
</g>
<!-- [root] meta.count&#45;boundary (EachMode fixup)&#45;&gt;[root] aws_glue_trigger.start_second (expand) -->
<g id="edge35" class="edge"><title>[root] meta.count&#45;boundary (EachMode fixup)&#45;&gt;[root] aws_glue_trigger.start_second (expand)</title>
<path fill="none" stroke="black" d="M616.184,-360.411C640.997,-350.653 672.597,-338.226 699.072,-327.814"/>
<polygon fill="black" stroke="black" points="700.547,-330.995 708.572,-324.078 697.985,-324.481 700.547,-330.995"/>
</g>
<!-- [root] meta.count&#45;boundary (EachMode fixup)&#45;&gt;[root] aws_iam_role_policy_attachment.glue_policy_attch (expand) -->
<g id="edge36" class="edge"><title>[root] meta.count&#45;boundary (EachMode fixup)&#45;&gt;[root] aws_iam_role_policy_attachment.glue_policy_attch (expand)</title>
<path fill="none" stroke="black" d="M712.111,-366.377C758.984,-358.802 810.469,-345.907 854,-324 875.071,-313.396 871.925,-298.597 893,-288 918.733,-275.06 978.871,-262.962 1036.94,-253.601"/>
<polygon fill="black" stroke="black" points="1037.66,-257.03 1046.99,-252.004 1036.56,-250.116 1037.66,-257.03"/>
</g>
<!-- [root] meta.count&#45;boundary (EachMode fixup)&#45;&gt;[root] aws_s3_bucket_object.glue_code_part1 (expand) -->
<g id="edge37" class="edge"><title>[root] meta.count&#45;boundary (EachMode fixup)&#45;&gt;[root] aws_s3_bucket_object.glue_code_part1 (expand)</title>
<path fill="none" stroke="black" d="M666.967,-362.538C735.809,-351.83 830.17,-337.151 904.595,-325.574"/>
<polygon fill="black" stroke="black" points="905.152,-329.03 914.495,-324.034 904.076,-322.113 905.152,-329.03"/>
</g>
<!-- [root] meta.count&#45;boundary (EachMode fixup)&#45;&gt;[root] aws_s3_bucket_object.glue_code_part2 (expand) -->
<g id="edge38" class="edge"><title>[root] meta.count&#45;boundary (EachMode fixup)&#45;&gt;[root] aws_s3_bucket_object.glue_code_part2 (expand)</title>
<path fill="none" stroke="black" d="M702.836,-365.356C846.419,-352.357 1069.51,-332.084 1154,-324 1166.35,-322.818 1179.2,-321.569 1192.06,-320.306"/>
<polygon fill="black" stroke="black" points="1192.75,-323.755 1202.36,-319.291 1192.07,-316.788 1192.75,-323.755"/>
</g>
<!-- [root] meta.count&#45;boundary (EachMode fixup)&#45;&gt;[root] aws_s3_bucket_object.glue_data_source (expand) -->
<g id="edge39" class="edge"><title>[root] meta.count&#45;boundary (EachMode fixup)&#45;&gt;[root] aws_s3_bucket_object.glue_data_source (expand)</title>
<path fill="none" stroke="black" d="M481.033,-362.538C412.191,-351.83 317.83,-337.151 243.405,-325.574"/>
<polygon fill="black" stroke="black" points="243.924,-322.113 233.505,-324.034 242.848,-329.03 243.924,-322.113"/>
</g>
<!-- [root] provider[&quot;registry.terraform.io/hashicorp/aws&quot;] (close) -->
<g id="node22" class="node"><title>[root] provider[&quot;registry.terraform.io/hashicorp/aws&quot;] (close)</title>
<ellipse fill="none" stroke="black" cx="1005" cy="-378" rx="232.859" ry="18"/>
<text text-anchor="middle" x="1005" y="-374.3" font-family="Times New Roman,serif" font-size="14.00">[root] provider[&quot;registry.terraform.io/hashicorp/aws&quot;] (close)</text>
</g>
<!-- [root] provider[&quot;registry.terraform.io/hashicorp/aws&quot;] (close)&#45;&gt;[root] aws_glue_trigger.start_crawler (expand) -->
<g id="edge40" class="edge"><title>[root] provider[&quot;registry.terraform.io/hashicorp/aws&quot;] (close)&#45;&gt;[root] aws_glue_trigger.start_crawler (expand)</title>
<path fill="none" stroke="black" d="M849.912,-364.575C744.009,-355.438 600.284,-341.761 463.932,-324.072"/>
<polygon fill="black" stroke="black" points="464.079,-320.562 453.71,-322.736 463.172,-327.503 464.079,-320.562"/>
</g>
<!-- [root] provider[&quot;registry.terraform.io/hashicorp/aws&quot;] (close)&#45;&gt;[root] aws_glue_trigger.start_first (expand) -->
<g id="edge41" class="edge"><title>[root] provider[&quot;registry.terraform.io/hashicorp/aws&quot;] (close)&#45;&gt;[root] aws_glue_trigger.start_first (expand)</title>
<path fill="none" stroke="black" d="M897.755,-361.975C829.576,-352.2 739.184,-338.83 650.135,-324.162"/>
<polygon fill="black" stroke="black" points="650.565,-320.685 640.128,-322.507 649.423,-327.591 650.565,-320.685"/>
</g>
<!-- [root] provider[&quot;registry.terraform.io/hashicorp/aws&quot;] (close)&#45;&gt;[root] aws_glue_trigger.start_second (expand) -->
<g id="edge42" class="edge"><title>[root] provider[&quot;registry.terraform.io/hashicorp/aws&quot;] (close)&#45;&gt;[root] aws_glue_trigger.start_second (expand)</title>
<path fill="none" stroke="black" d="M945.683,-360.588C909.215,-350.498 862.254,-337.505 823.706,-326.84"/>
<polygon fill="black" stroke="black" points="824.159,-323.333 813.587,-324.04 822.292,-330.08 824.159,-323.333"/>
</g>
<!-- [root] provider[&quot;registry.terraform.io/hashicorp/aws&quot;] (close)&#45;&gt;[root] aws_iam_role_policy_attachment.glue_policy_attch (expand) -->
<g id="edge43" class="edge"><title>[root] provider[&quot;registry.terraform.io/hashicorp/aws&quot;] (close)&#45;&gt;[root] aws_iam_role_policy_attachment.glue_policy_attch (expand)</title>
<path fill="none" stroke="black" d="M1094.14,-361.305C1116.39,-353.453 1138.34,-341.673 1154,-324 1168.89,-307.198 1173.42,-281.716 1174.5,-262.318"/>
<polygon fill="black" stroke="black" points="1178,-262.357 1174.79,-252.26 1171,-262.156 1178,-262.357"/>
</g>
<!-- [root] provider[&quot;registry.terraform.io/hashicorp/aws&quot;] (close)&#45;&gt;[root] aws_s3_bucket_object.glue_code_part1 (expand) -->
<g id="edge44" class="edge"><title>[root] provider[&quot;registry.terraform.io/hashicorp/aws&quot;] (close)&#45;&gt;[root] aws_s3_bucket_object.glue_code_part1 (expand)</title>
<path fill="none" stroke="black" d="M1009.7,-359.697C1011.81,-351.898 1014.36,-342.509 1016.72,-333.829"/>
<polygon fill="black" stroke="black" points="1020.12,-334.672 1019.36,-324.104 1013.36,-332.838 1020.12,-334.672"/>
</g>
<!-- [root] provider[&quot;registry.terraform.io/hashicorp/aws&quot;] (close)&#45;&gt;[root] aws_s3_bucket_object.glue_code_part2 (expand) -->
<g id="edge45" class="edge"><title>[root] provider[&quot;registry.terraform.io/hashicorp/aws&quot;] (close)&#45;&gt;[root] aws_s3_bucket_object.glue_code_part2 (expand)</title>
<path fill="none" stroke="black" d="M1078.59,-360.853C1125.58,-350.54 1186.76,-337.116 1236.27,-326.25"/>
<polygon fill="black" stroke="black" points="1237.32,-329.605 1246.33,-324.043 1235.82,-322.767 1237.32,-329.605"/>
</g>
<!-- [root] provider[&quot;registry.terraform.io/hashicorp/aws&quot;] (close)&#45;&gt;[root] aws_s3_bucket_object.glue_data_source (expand) -->
<g id="edge46" class="edge"><title>[root] provider[&quot;registry.terraform.io/hashicorp/aws&quot;] (close)&#45;&gt;[root] aws_s3_bucket_object.glue_data_source (expand)</title>
<path fill="none" stroke="black" d="M839.536,-365.305C638.729,-351.107 320.031,-328.562 258.401,-323.91"/>
<polygon fill="black" stroke="black" points="258.466,-320.405 248.221,-323.102 257.912,-327.383 258.466,-320.405"/>
</g>
<!-- [root] root -->
<g id="node23" class="node"><title>[root] root</title>
<ellipse fill="none" stroke="black" cx="789" cy="-450" rx="49.2915" ry="18"/>
<text text-anchor="middle" x="789" y="-446.3" font-family="Times New Roman,serif" font-size="14.00">[root] root</text>
</g>
<!-- [root] root&#45;&gt;[root] meta.count&#45;boundary (EachMode fixup) -->
<g id="edge49" class="edge"><title>[root] root&#45;&gt;[root] meta.count&#45;boundary (EachMode fixup)</title>
<path fill="none" stroke="black" d="M753.497,-437.441C721.061,-426.88 672.441,-411.051 633.981,-398.529"/>
<polygon fill="black" stroke="black" points="635.03,-395.189 624.438,-395.422 632.863,-401.846 635.03,-395.189"/>
</g>
<!-- [root] root&#45;&gt;[root] provider[&quot;registry.terraform.io/hashicorp/aws&quot;] (close) -->
<g id="edge50" class="edge"><title>[root] root&#45;&gt;[root] provider[&quot;registry.terraform.io/hashicorp/aws&quot;] (close)</title>
<path fill="none" stroke="black" d="M824.668,-437.441C857.034,-426.952 905.439,-411.265 943.953,-398.784"/>
<polygon fill="black" stroke="black" points="945.082,-402.097 953.516,-395.685 942.924,-395.438 945.082,-402.097"/>
</g>
</g>
</svg>
