<?xml version="1.0" encoding="UTF-8" standalone="no"?>
<!DOCTYPE svg PUBLIC "-//W3C//DTD SVG 1.1//EN"
 "http://www.w3.org/Graphics/SVG/1.1/DTD/svg11.dtd">
<!-- Generated by graphviz version 2.38.0 (20140413.2041)
 -->
<!-- Title: %3 Pages: 1 -->
<svg width="917pt" height="548pt"
 viewBox="0.00 0.00 917.04 548.00" xmlns="http://www.w3.org/2000/svg" xmlns:xlink="http://www.w3.org/1999/xlink">
<g id="graph0" class="graph" transform="scale(1 1) rotate(0) translate(4 544)">
<title>%3</title>
<polygon fill="white" stroke="none" points="-4,4 -4,-544 913.043,-544 913.043,4 -4,4"/>
<!-- [root] aws_default_security_group.group (expand) -->
<g id="node1" class="node"><title>[root] aws_default_security_group.group (expand)</title>
<polygon fill="none" stroke="black" points="779.364,-396 567.364,-396 567.364,-360 779.364,-360 779.364,-396"/>
<text text-anchor="middle" x="673.364" y="-374.3" font-family="Times New Roman,serif" font-size="14.00">aws_default_security_group.group</text>
</g>
<!-- [root] aws_vpc.vpc (expand) -->
<g id="node8" class="node"><title>[root] aws_vpc.vpc (expand)</title>
<polygon fill="none" stroke="black" points="486.364,-180 394.364,-180 394.364,-144 486.364,-144 486.364,-180"/>
<text text-anchor="middle" x="440.364" y="-158.3" font-family="Times New Roman,serif" font-size="14.00">aws_vpc.vpc</text>
</g>
<!-- [root] aws_default_security_group.group (expand)&#45;&gt;[root] aws_vpc.vpc (expand) -->
<g id="edge1" class="edge"><title>[root] aws_default_security_group.group (expand)&#45;&gt;[root] aws_vpc.vpc (expand)</title>
<path fill="none" stroke="black" d="M661.719,-359.742C639.823,-328.227 589.794,-260.515 535.364,-216 520.821,-204.106 503.236,-193.453 487.169,-184.872"/>
<polygon fill="black" stroke="black" points="488.406,-181.571 477.918,-180.066 485.178,-187.782 488.406,-181.571"/>
</g>
<!-- [root] aws_iam_role.role (expand) -->
<g id="node2" class="node"><title>[root] aws_iam_role.role (expand)</title>
<polygon fill="none" stroke="black" points="139.864,-324 20.864,-324 20.864,-288 139.864,-288 139.864,-324"/>
<text text-anchor="middle" x="80.364" y="-302.3" font-family="Times New Roman,serif" font-size="14.00">aws_iam_role.role</text>
</g>
<!-- [root] provider[&quot;registry.terraform.io/hashicorp/aws&quot;] -->
<g id="node9" class="node"><title>[root] provider[&quot;registry.terraform.io/hashicorp/aws&quot;]</title>
<polygon fill="none" stroke="black" points="257.364,-108 0.135896,-90 257.364,-72 514.592,-90 257.364,-108"/>
<text text-anchor="middle" x="257.364" y="-86.3" font-family="Times New Roman,serif" font-size="14.00">provider[&quot;registry.terraform.io/hashicorp/aws&quot;]</text>
</g>
<!-- [root] aws_iam_role.role (expand)&#45;&gt;[root] provider[&quot;registry.terraform.io/hashicorp/aws&quot;] -->
<g id="edge2" class="edge"><title>[root] aws_iam_role.role (expand)&#45;&gt;[root] provider[&quot;registry.terraform.io/hashicorp/aws&quot;]</title>
<path fill="none" stroke="black" d="M79.4145,-287.667C79.173,-268.744 81.1769,-238.185 94.364,-216 123.089,-167.675 178.245,-131.467 216.388,-110.777"/>
<polygon fill="black" stroke="black" points="218.491,-113.624 225.693,-105.854 215.217,-107.437 218.491,-113.624"/>
</g>
<!-- [root] var.obj_prefix -->
<g id="node11" class="node"><title>[root] var.obj_prefix</title>
<polygon fill="none" stroke="black" points="192.864,-252 103.864,-252 103.864,-216 198.864,-216 198.864,-246 192.864,-252"/>
<polyline fill="none" stroke="black" points="192.864,-252 192.864,-246 "/>
<polyline fill="none" stroke="black" points="198.864,-246 192.864,-246 "/>
<text text-anchor="middle" x="151.364" y="-230.3" font-family="Times New Roman,serif" font-size="14.00">var.obj_prefix</text>
</g>
<!-- [root] aws_iam_role.role (expand)&#45;&gt;[root] var.obj_prefix -->
<g id="edge3" class="edge"><title>[root] aws_iam_role.role (expand)&#45;&gt;[root] var.obj_prefix</title>
<path fill="none" stroke="black" d="M97.9146,-287.697C106.599,-279.135 117.227,-268.656 126.712,-259.304"/>
<polygon fill="black" stroke="black" points="129.352,-261.617 134.015,-252.104 124.437,-256.633 129.352,-261.617"/>
</g>
<!-- [root] aws_internet_gateway.vpc_gw (expand) -->
<g id="node3" class="node"><title>[root] aws_internet_gateway.vpc_gw (expand)</title>
<polygon fill="none" stroke="black" points="549.364,-396 361.364,-396 361.364,-360 549.364,-360 549.364,-396"/>
<text text-anchor="middle" x="455.364" y="-374.3" font-family="Times New Roman,serif" font-size="14.00">aws_internet_gateway.vpc_gw</text>
</g>
<!-- [root] aws_internet_gateway.vpc_gw (expand)&#45;&gt;[root] aws_vpc.vpc (expand) -->
<g id="edge4" class="edge"><title>[root] aws_internet_gateway.vpc_gw (expand)&#45;&gt;[root] aws_vpc.vpc (expand)</title>
<path fill="none" stroke="black" d="M471.294,-359.985C497.358,-329.983 543.705,-266.108 517.364,-216 510.801,-203.516 499.821,-193.4 488.178,-185.483"/>
<polygon fill="black" stroke="black" points="489.964,-182.472 479.637,-180.105 486.234,-188.395 489.964,-182.472"/>
</g>
<!-- [root] aws_redshift_cluster.default (expand) -->
<g id="node4" class="node"><title>[root] aws_redshift_cluster.default (expand)</title>
<polygon fill="none" stroke="black" points="338.864,-396 165.864,-396 165.864,-360 338.864,-360 338.864,-396"/>
<text text-anchor="middle" x="252.364" y="-374.3" font-family="Times New Roman,serif" font-size="14.00">aws_redshift_cluster.default</text>
</g>
<!-- [root] aws_redshift_cluster.default (expand)&#45;&gt;[root] aws_iam_role.role (expand) -->
<g id="edge5" class="edge"><title>[root] aws_redshift_cluster.default (expand)&#45;&gt;[root] aws_iam_role.role (expand)</title>
<path fill="none" stroke="black" d="M210.288,-359.876C186.566,-350.222 156.748,-338.087 131.663,-327.878"/>
<polygon fill="black" stroke="black" points="132.885,-324.596 122.303,-324.068 130.246,-331.08 132.885,-324.596"/>
</g>
<!-- [root] aws_redshift_subnet_group.subnet_group (expand) -->
<g id="node5" class="node"><title>[root] aws_redshift_subnet_group.subnet_group (expand)</title>
<polygon fill="none" stroke="black" points="412.364,-324 158.364,-324 158.364,-288 412.364,-288 412.364,-324"/>
<text text-anchor="middle" x="285.364" y="-302.3" font-family="Times New Roman,serif" font-size="14.00">aws_redshift_subnet_group.subnet_group</text>
</g>
<!-- [root] aws_redshift_cluster.default (expand)&#45;&gt;[root] aws_redshift_subnet_group.subnet_group (expand) -->
<g id="edge6" class="edge"><title>[root] aws_redshift_cluster.default (expand)&#45;&gt;[root] aws_redshift_subnet_group.subnet_group (expand)</title>
<path fill="none" stroke="black" d="M260.521,-359.697C264.278,-351.728 268.817,-342.1 272.982,-333.264"/>
<polygon fill="black" stroke="black" points="276.202,-334.642 277.301,-324.104 269.87,-331.657 276.202,-334.642"/>
</g>
<!-- [root] aws_subnet.subnet_1 (expand) -->
<g id="node6" class="node"><title>[root] aws_subnet.subnet_1 (expand)</title>
<polygon fill="none" stroke="black" points="508.864,-252 371.864,-252 371.864,-216 508.864,-216 508.864,-252"/>
<text text-anchor="middle" x="440.364" y="-230.3" font-family="Times New Roman,serif" font-size="14.00">aws_subnet.subnet_1</text>
</g>
<!-- [root] aws_redshift_subnet_group.subnet_group (expand)&#45;&gt;[root] aws_subnet.subnet_1 (expand) -->
<g id="edge7" class="edge"><title>[root] aws_redshift_subnet_group.subnet_group (expand)&#45;&gt;[root] aws_subnet.subnet_1 (expand)</title>
<path fill="none" stroke="black" d="M323.281,-287.876C344.377,-278.349 370.82,-266.407 393.237,-256.283"/>
<polygon fill="black" stroke="black" points="394.897,-259.374 402.57,-252.068 392.016,-252.994 394.897,-259.374"/>
</g>
<!-- [root] aws_subnet.subnet_2 (expand) -->
<g id="node7" class="node"><title>[root] aws_subnet.subnet_2 (expand)</title>
<polygon fill="none" stroke="black" points="353.864,-252 216.864,-252 216.864,-216 353.864,-216 353.864,-252"/>
<text text-anchor="middle" x="285.364" y="-230.3" font-family="Times New Roman,serif" font-size="14.00">aws_subnet.subnet_2</text>
</g>
<!-- [root] aws_redshift_subnet_group.subnet_group (expand)&#45;&gt;[root] aws_subnet.subnet_2 (expand) -->
<g id="edge8" class="edge"><title>[root] aws_redshift_subnet_group.subnet_group (expand)&#45;&gt;[root] aws_subnet.subnet_2 (expand)</title>
<path fill="none" stroke="black" d="M285.364,-287.697C285.364,-279.983 285.364,-270.712 285.364,-262.112"/>
<polygon fill="black" stroke="black" points="288.864,-262.104 285.364,-252.104 281.864,-262.104 288.864,-262.104"/>
</g>
<!-- [root] aws_redshift_subnet_group.subnet_group (expand)&#45;&gt;[root] var.obj_prefix -->
<g id="edge9" class="edge"><title>[root] aws_redshift_subnet_group.subnet_group (expand)&#45;&gt;[root] var.obj_prefix</title>
<path fill="none" stroke="black" d="M252.584,-287.876C234.739,-278.554 212.467,-266.919 193.362,-256.939"/>
<polygon fill="black" stroke="black" points="194.754,-253.718 184.27,-252.19 191.513,-259.922 194.754,-253.718"/>
</g>
<!-- [root] aws_subnet.subnet_1 (expand)&#45;&gt;[root] aws_vpc.vpc (expand) -->
<g id="edge10" class="edge"><title>[root] aws_subnet.subnet_1 (expand)&#45;&gt;[root] aws_vpc.vpc (expand)</title>
<path fill="none" stroke="black" d="M440.364,-215.697C440.364,-207.983 440.364,-198.712 440.364,-190.112"/>
<polygon fill="black" stroke="black" points="443.864,-190.104 440.364,-180.104 436.864,-190.104 443.864,-190.104"/>
</g>
<!-- [root] aws_subnet.subnet_2 (expand)&#45;&gt;[root] aws_vpc.vpc (expand) -->
<g id="edge11" class="edge"><title>[root] aws_subnet.subnet_2 (expand)&#45;&gt;[root] aws_vpc.vpc (expand)</title>
<path fill="none" stroke="black" d="M323.281,-215.876C344.377,-206.349 370.82,-194.407 393.237,-184.283"/>
<polygon fill="black" stroke="black" points="394.897,-187.374 402.57,-180.068 392.016,-180.994 394.897,-187.374"/>
</g>
<!-- [root] aws_vpc.vpc (expand)&#45;&gt;[root] provider[&quot;registry.terraform.io/hashicorp/aws&quot;] -->
<g id="edge12" class="edge"><title>[root] aws_vpc.vpc (expand)&#45;&gt;[root] provider[&quot;registry.terraform.io/hashicorp/aws&quot;]</title>
<path fill="none" stroke="black" d="M395.597,-143.876C368.053,-133.34 332.785,-119.85 304.767,-109.132"/>
<polygon fill="black" stroke="black" points="305.774,-105.77 295.184,-105.467 303.273,-112.308 305.774,-105.77"/>
</g>
<!-- [root] var.awsprofile -->
<g id="node10" class="node"><title>[root] var.awsprofile</title>
<polygon fill="none" stroke="black" points="247.864,-36 158.864,-36 158.864,-0 253.864,-0 253.864,-30 247.864,-36"/>
<polyline fill="none" stroke="black" points="247.864,-36 247.864,-30 "/>
<polyline fill="none" stroke="black" points="253.864,-30 247.864,-30 "/>
<text text-anchor="middle" x="206.364" y="-14.3" font-family="Times New Roman,serif" font-size="14.00">var.awsprofile</text>
</g>
<!-- [root] provider[&quot;registry.terraform.io/hashicorp/aws&quot;]&#45;&gt;[root] var.awsprofile -->
<g id="edge19" class="edge"><title>[root] provider[&quot;registry.terraform.io/hashicorp/aws&quot;]&#45;&gt;[root] var.awsprofile</title>
<path fill="none" stroke="black" d="M245.535,-72.7646C239.408,-64.3538 231.784,-53.8904 224.896,-44.4356"/>
<polygon fill="black" stroke="black" points="227.557,-42.1453 218.84,-36.1239 221.9,-46.2673 227.557,-42.1453"/>
</g>
<!-- [root] var.region -->
<g id="node12" class="node"><title>[root] var.region</title>
<polygon fill="none" stroke="black" points="338.364,-36 272.364,-36 272.364,-0 344.364,-0 344.364,-30 338.364,-36"/>
<polyline fill="none" stroke="black" points="338.364,-36 338.364,-30 "/>
<polyline fill="none" stroke="black" points="344.364,-30 338.364,-30 "/>
<text text-anchor="middle" x="308.364" y="-14.3" font-family="Times New Roman,serif" font-size="14.00">var.region</text>
</g>
<!-- [root] provider[&quot;registry.terraform.io/hashicorp/aws&quot;]&#45;&gt;[root] var.region -->
<g id="edge20" class="edge"><title>[root] provider[&quot;registry.terraform.io/hashicorp/aws&quot;]&#45;&gt;[root] var.region</title>
<path fill="none" stroke="black" d="M269.193,-72.7646C275.321,-64.3538 282.944,-53.8904 289.832,-44.4356"/>
<polygon fill="black" stroke="black" points="292.828,-46.2673 295.888,-36.1239 287.171,-42.1453 292.828,-46.2673"/>
</g>
<!-- [root] meta.count&#45;boundary (EachMode fixup) -->
<g id="node13" class="node"><title>[root] meta.count&#45;boundary (EachMode fixup)</title>
<ellipse fill="none" stroke="black" cx="245.364" cy="-450" rx="180.868" ry="18"/>
<text text-anchor="middle" x="245.364" y="-446.3" font-family="Times New Roman,serif" font-size="14.00">[root] meta.count&#45;boundary (EachMode fixup)</text>
</g>
<!-- [root] meta.count&#45;boundary (EachMode fixup)&#45;&gt;[root] aws_default_security_group.group (expand) -->
<g id="edge13" class="edge"><title>[root] meta.count&#45;boundary (EachMode fixup)&#45;&gt;[root] aws_default_security_group.group (expand)</title>
<path fill="none" stroke="black" d="M335.087,-434.326C400.154,-423.684 488.678,-409.206 558.848,-397.729"/>
<polygon fill="black" stroke="black" points="559.758,-401.127 569.062,-396.059 558.628,-394.219 559.758,-401.127"/>
</g>
<!-- [root] meta.count&#45;boundary (EachMode fixup)&#45;&gt;[root] aws_internet_gateway.vpc_gw (expand) -->
<g id="edge14" class="edge"><title>[root] meta.count&#45;boundary (EachMode fixup)&#45;&gt;[root] aws_internet_gateway.vpc_gw (expand)</title>
<path fill="none" stroke="black" d="M294.6,-432.588C324.483,-422.627 362.855,-409.836 394.616,-399.249"/>
<polygon fill="black" stroke="black" points="395.864,-402.523 404.244,-396.04 393.65,-395.882 395.864,-402.523"/>
</g>
<!-- [root] meta.count&#45;boundary (EachMode fixup)&#45;&gt;[root] aws_redshift_cluster.default (expand) -->
<g id="edge15" class="edge"><title>[root] meta.count&#45;boundary (EachMode fixup)&#45;&gt;[root] aws_redshift_cluster.default (expand)</title>
<path fill="none" stroke="black" d="M247.094,-431.697C247.866,-423.983 248.793,-414.712 249.653,-406.112"/>
<polygon fill="black" stroke="black" points="253.141,-406.403 250.654,-396.104 246.176,-405.706 253.141,-406.403"/>
</g>
<!-- [root] provider[&quot;registry.terraform.io/hashicorp/aws&quot;] (close) -->
<g id="node14" class="node"><title>[root] provider[&quot;registry.terraform.io/hashicorp/aws&quot;] (close)</title>
<ellipse fill="none" stroke="black" cx="676.364" cy="-450" rx="232.859" ry="18"/>
<text text-anchor="middle" x="676.364" y="-446.3" font-family="Times New Roman,serif" font-size="14.00">[root] provider[&quot;registry.terraform.io/hashicorp/aws&quot;] (close)</text>
</g>
<!-- [root] provider[&quot;registry.terraform.io/hashicorp/aws&quot;] (close)&#45;&gt;[root] aws_default_security_group.group (expand) -->
<g id="edge16" class="edge"><title>[root] provider[&quot;registry.terraform.io/hashicorp/aws&quot;] (close)&#45;&gt;[root] aws_default_security_group.group (expand)</title>
<path fill="none" stroke="black" d="M675.622,-431.697C675.292,-423.983 674.895,-414.712 674.526,-406.112"/>
<polygon fill="black" stroke="black" points="678.022,-405.945 674.097,-396.104 671.029,-406.245 678.022,-405.945"/>
</g>
<!-- [root] provider[&quot;registry.terraform.io/hashicorp/aws&quot;] (close)&#45;&gt;[root] aws_internet_gateway.vpc_gw (expand) -->
<g id="edge17" class="edge"><title>[root] provider[&quot;registry.terraform.io/hashicorp/aws&quot;] (close)&#45;&gt;[root] aws_internet_gateway.vpc_gw (expand)</title>
<path fill="none" stroke="black" d="M623.99,-432.411C592.507,-422.439 552.223,-409.679 518.925,-399.132"/>
<polygon fill="black" stroke="black" points="519.873,-395.761 509.283,-396.078 517.759,-402.435 519.873,-395.761"/>
</g>
<!-- [root] provider[&quot;registry.terraform.io/hashicorp/aws&quot;] (close)&#45;&gt;[root] aws_redshift_cluster.default (expand) -->
<g id="edge18" class="edge"><title>[root] provider[&quot;registry.terraform.io/hashicorp/aws&quot;] (close)&#45;&gt;[root] aws_redshift_cluster.default (expand)</title>
<path fill="none" stroke="black" d="M580.997,-433.56C516.443,-423.07 429.246,-408.823 352.364,-396 351.278,-395.819 350.186,-395.637 349.088,-395.453"/>
<polygon fill="black" stroke="black" points="349.523,-391.977 339.082,-393.776 348.366,-398.881 349.523,-391.977"/>
</g>
<!-- [root] root -->
<g id="node15" class="node"><title>[root] root</title>
<ellipse fill="none" stroke="black" cx="460.364" cy="-522" rx="49.2915" ry="18"/>
<text text-anchor="middle" x="460.364" y="-518.3" font-family="Times New Roman,serif" font-size="14.00">[root] root</text>
</g>
<!-- [root] root&#45;&gt;[root] meta.count&#45;boundary (EachMode fixup) -->
<g id="edge21" class="edge"><title>[root] root&#45;&gt;[root] meta.count&#45;boundary (EachMode fixup)</title>
<path fill="none" stroke="black" d="M424.861,-509.441C392.425,-498.88 343.805,-483.051 305.345,-470.529"/>
<polygon fill="black" stroke="black" points="306.394,-467.189 295.802,-467.422 304.227,-473.846 306.394,-467.189"/>
</g>
<!-- [root] root&#45;&gt;[root] provider[&quot;registry.terraform.io/hashicorp/aws&quot;] (close) -->
<g id="edge22" class="edge"><title>[root] root&#45;&gt;[root] provider[&quot;registry.terraform.io/hashicorp/aws&quot;] (close)</title>
<path fill="none" stroke="black" d="M496.032,-509.441C528.398,-498.952 576.803,-483.265 615.317,-470.784"/>
<polygon fill="black" stroke="black" points="616.446,-474.097 624.88,-467.685 614.288,-467.438 616.446,-474.097"/>
</g>
</g>
</svg>
