<?xml version="1.0" encoding="UTF-8" standalone="no"?>
<!DOCTYPE svg PUBLIC "-//W3C//DTD SVG 1.1//EN"
 "http://www.w3.org/Graphics/SVG/1.1/DTD/svg11.dtd">
<!-- Generated by graphviz version 2.38.0 (20140413.2041)
 -->
<!-- Title: %3 Pages: 1 -->
<svg width="982pt" height="404pt"
 viewBox="0.00 0.00 982.04 404.00" xmlns="http://www.w3.org/2000/svg" xmlns:xlink="http://www.w3.org/1999/xlink">
<g id="graph0" class="graph" transform="scale(1 1) rotate(0) translate(4 400)">
<title>%3</title>
<polygon fill="white" stroke="none" points="-4,4 -4,-400 978.043,-400 978.043,4 -4,4"/>
<!-- [root] aws_glue_catalog_database.glue_catalog_db (expand) -->
<g id="node1" class="node"><title>[root] aws_glue_catalog_database.glue_catalog_db (expand)</title>
<polygon fill="none" stroke="black" points="666.364,-180 398.364,-180 398.364,-144 666.364,-144 666.364,-180"/>
<text text-anchor="middle" x="532.364" y="-158.3" font-family="Times New Roman,serif" font-size="14.00">aws_glue_catalog_database.glue_catalog_db</text>
</g>
<!-- [root] provider[&quot;registry.terraform.io/hashicorp/aws&quot;] -->
<g id="node8" class="node"><title>[root] provider[&quot;registry.terraform.io/hashicorp/aws&quot;]</title>
<polygon fill="none" stroke="black" points="257.364,-108 0.135896,-90 257.364,-72 514.592,-90 257.364,-108"/>
<text text-anchor="middle" x="257.364" y="-86.3" font-family="Times New Roman,serif" font-size="14.00">provider[&quot;registry.terraform.io/hashicorp/aws&quot;]</text>
</g>
<!-- [root] aws_glue_catalog_database.glue_catalog_db (expand)&#45;&gt;[root] provider[&quot;registry.terraform.io/hashicorp/aws&quot;] -->
<g id="edge1" class="edge"><title>[root] aws_glue_catalog_database.glue_catalog_db (expand)&#45;&gt;[root] provider[&quot;registry.terraform.io/hashicorp/aws&quot;]</title>
<path fill="none" stroke="black" d="M465.443,-143.966C421.047,-132.665 363.182,-117.935 319.746,-106.879"/>
<polygon fill="black" stroke="black" points="320.426,-103.441 309.872,-104.366 318.699,-110.224 320.426,-103.441"/>
</g>
<!-- [root] var.obj_prefix -->
<g id="node10" class="node"><title>[root] var.obj_prefix</title>
<polygon fill="none" stroke="black" points="621.864,-108 532.864,-108 532.864,-72 627.864,-72 627.864,-102 621.864,-108"/>
<polyline fill="none" stroke="black" points="621.864,-108 621.864,-102 "/>
<polyline fill="none" stroke="black" points="627.864,-102 621.864,-102 "/>
<text text-anchor="middle" x="580.364" y="-86.3" font-family="Times New Roman,serif" font-size="14.00">var.obj_prefix</text>
</g>
<!-- [root] aws_glue_catalog_database.glue_catalog_db (expand)&#45;&gt;[root] var.obj_prefix -->
<g id="edge2" class="edge"><title>[root] aws_glue_catalog_database.glue_catalog_db (expand)&#45;&gt;[root] var.obj_prefix</title>
<path fill="none" stroke="black" d="M544.229,-143.697C549.868,-135.474 556.718,-125.483 562.933,-116.421"/>
<polygon fill="black" stroke="black" points="565.867,-118.331 568.635,-108.104 560.093,-114.372 565.867,-118.331"/>
</g>
<!-- [root] aws_glue_crawler.glue_crawler (expand) -->
<g id="node2" class="node"><title>[root] aws_glue_crawler.glue_crawler (expand)</title>
<polygon fill="none" stroke="black" points="635.864,-252 444.864,-252 444.864,-216 635.864,-216 635.864,-252"/>
<text text-anchor="middle" x="540.364" y="-230.3" font-family="Times New Roman,serif" font-size="14.00">aws_glue_crawler.glue_crawler</text>
</g>
<!-- [root] aws_glue_crawler.glue_crawler (expand)&#45;&gt;[root] aws_glue_catalog_database.glue_catalog_db (expand) -->
<g id="edge3" class="edge"><title>[root] aws_glue_crawler.glue_crawler (expand)&#45;&gt;[root] aws_glue_catalog_database.glue_catalog_db (expand)</title>
<path fill="none" stroke="black" d="M538.387,-215.697C537.505,-207.983 536.445,-198.712 535.463,-190.112"/>
<polygon fill="black" stroke="black" points="538.932,-189.642 534.319,-180.104 531.977,-190.437 538.932,-189.642"/>
</g>
<!-- [root] aws_iam_role.glue_role (expand) -->
<g id="node4" class="node"><title>[root] aws_iam_role.glue_role (expand)</title>
<polygon fill="none" stroke="black" points="379.864,-180 230.864,-180 230.864,-144 379.864,-144 379.864,-180"/>
<text text-anchor="middle" x="305.364" y="-158.3" font-family="Times New Roman,serif" font-size="14.00">aws_iam_role.glue_role</text>
</g>
<!-- [root] aws_glue_crawler.glue_crawler (expand)&#45;&gt;[root] aws_iam_role.glue_role (expand) -->
<g id="edge4" class="edge"><title>[root] aws_glue_crawler.glue_crawler (expand)&#45;&gt;[root] aws_iam_role.glue_role (expand)</title>
<path fill="none" stroke="black" d="M483.177,-215.966C449.771,-206.015 407.442,-193.406 372.464,-182.987"/>
<polygon fill="black" stroke="black" points="373.391,-179.611 362.807,-180.111 371.392,-186.32 373.391,-179.611"/>
</g>
<!-- [root] aws_s3_bucket.glue_data_bucket (expand) -->
<g id="node6" class="node"><title>[root] aws_s3_bucket.glue_data_bucket (expand)</title>
<polygon fill="none" stroke="black" points="890.364,-180 684.364,-180 684.364,-144 890.364,-144 890.364,-180"/>
<text text-anchor="middle" x="787.364" y="-158.3" font-family="Times New Roman,serif" font-size="14.00">aws_s3_bucket.glue_data_bucket</text>
</g>
<!-- [root] aws_glue_crawler.glue_crawler (expand)&#45;&gt;[root] aws_s3_bucket.glue_data_bucket (expand) -->
<g id="edge5" class="edge"><title>[root] aws_glue_crawler.glue_crawler (expand)&#45;&gt;[root] aws_s3_bucket.glue_data_bucket (expand)</title>
<path fill="none" stroke="black" d="M600.471,-215.966C635.733,-205.972 680.454,-193.298 717.308,-182.854"/>
<polygon fill="black" stroke="black" points="718.321,-186.205 726.987,-180.111 716.412,-179.47 718.321,-186.205"/>
</g>
<!-- [root] aws_iam_policy.glue_policy (expand) -->
<g id="node3" class="node"><title>[root] aws_iam_policy.glue_policy (expand)</title>
<polygon fill="none" stroke="black" points="212.364,-180 36.364,-180 36.364,-144 212.364,-144 212.364,-180"/>
<text text-anchor="middle" x="124.364" y="-158.3" font-family="Times New Roman,serif" font-size="14.00">aws_iam_policy.glue_policy</text>
</g>
<!-- [root] aws_iam_policy.glue_policy (expand)&#45;&gt;[root] provider[&quot;registry.terraform.io/hashicorp/aws&quot;] -->
<g id="edge6" class="edge"><title>[root] aws_iam_policy.glue_policy (expand)&#45;&gt;[root] provider[&quot;registry.terraform.io/hashicorp/aws&quot;]</title>
<path fill="none" stroke="black" d="M156.899,-143.876C175.887,-133.883 199.924,-121.232 219.725,-110.81"/>
<polygon fill="black" stroke="black" points="221.558,-113.8 228.777,-106.046 218.298,-107.606 221.558,-113.8"/>
</g>
<!-- [root] aws_iam_policy.glue_policy (expand)&#45;&gt;[root] var.obj_prefix -->
<g id="edge7" class="edge"><title>[root] aws_iam_policy.glue_policy (expand)&#45;&gt;[root] var.obj_prefix</title>
<path fill="none" stroke="black" d="M212.619,-145.321C215.567,-144.865 218.489,-144.423 221.364,-144 351.832,-124.806 389.19,-134.894 522.435,-107.977"/>
<polygon fill="black" stroke="black" points="523.53,-111.325 532.622,-105.885 522.122,-104.468 523.53,-111.325"/>
</g>
<!-- [root] aws_iam_role.glue_role (expand)&#45;&gt;[root] provider[&quot;registry.terraform.io/hashicorp/aws&quot;] -->
<g id="edge8" class="edge"><title>[root] aws_iam_role.glue_role (expand)&#45;&gt;[root] provider[&quot;registry.terraform.io/hashicorp/aws&quot;]</title>
<path fill="none" stroke="black" d="M293.499,-143.697C287.776,-135.351 280.805,-125.185 274.518,-116.016"/>
<polygon fill="black" stroke="black" points="277.304,-113.89 268.762,-107.622 271.531,-117.849 277.304,-113.89"/>
</g>
<!-- [root] aws_iam_role.glue_role (expand)&#45;&gt;[root] var.obj_prefix -->
<g id="edge9" class="edge"><title>[root] aws_iam_role.glue_role (expand)&#45;&gt;[root] var.obj_prefix</title>
<path fill="none" stroke="black" d="M379.517,-143.969C419.407,-134.573 469.639,-122.366 523.157,-107.989"/>
<polygon fill="black" stroke="black" points="524.089,-111.362 532.83,-105.375 522.264,-104.604 524.089,-111.362"/>
</g>
<!-- [root] aws_iam_role_policy_attachment.glue_policy_attch (expand) -->
<g id="node5" class="node"><title>[root] aws_iam_role_policy_attachment.glue_policy_attch (expand)</title>
<polygon fill="none" stroke="black" points="426.364,-252 120.364,-252 120.364,-216 426.364,-216 426.364,-252"/>
<text text-anchor="middle" x="273.364" y="-230.3" font-family="Times New Roman,serif" font-size="14.00">aws_iam_role_policy_attachment.glue_policy_attch</text>
</g>
<!-- [root] aws_iam_role_policy_attachment.glue_policy_attch (expand)&#45;&gt;[root] aws_iam_policy.glue_policy (expand) -->
<g id="edge10" class="edge"><title>[root] aws_iam_role_policy_attachment.glue_policy_attch (expand)&#45;&gt;[root] aws_iam_policy.glue_policy (expand)</title>
<path fill="none" stroke="black" d="M236.915,-215.876C216.726,-206.392 191.443,-194.513 169.956,-184.419"/>
<polygon fill="black" stroke="black" points="171.234,-181.153 160.695,-180.068 168.258,-187.488 171.234,-181.153"/>
</g>
<!-- [root] aws_iam_role_policy_attachment.glue_policy_attch (expand)&#45;&gt;[root] aws_iam_role.glue_role (expand) -->
<g id="edge11" class="edge"><title>[root] aws_iam_role_policy_attachment.glue_policy_attch (expand)&#45;&gt;[root] aws_iam_role.glue_role (expand)</title>
<path fill="none" stroke="black" d="M281.274,-215.697C284.917,-207.728 289.319,-198.1 293.358,-189.264"/>
<polygon fill="black" stroke="black" points="296.57,-190.654 297.545,-180.104 290.204,-187.744 296.57,-190.654"/>
</g>
<!-- [root] aws_s3_bucket.glue_data_bucket (expand)&#45;&gt;[root] provider[&quot;registry.terraform.io/hashicorp/aws&quot;] -->
<g id="edge12" class="edge"><title>[root] aws_s3_bucket.glue_data_bucket (expand)&#45;&gt;[root] provider[&quot;registry.terraform.io/hashicorp/aws&quot;]</title>
<path fill="none" stroke="black" d="M684.241,-145.25C681.25,-144.825 678.286,-144.407 675.364,-144 566.755,-128.874 442.013,-113.289 357.274,-102.97"/>
<polygon fill="black" stroke="black" points="357.491,-99.4706 347.142,-101.738 356.646,-106.419 357.491,-99.4706"/>
</g>
<!-- [root] aws_s3_bucket.glue_data_bucket (expand)&#45;&gt;[root] var.obj_prefix -->
<g id="edge13" class="edge"><title>[root] aws_s3_bucket.glue_data_bucket (expand)&#45;&gt;[root] var.obj_prefix</title>
<path fill="none" stroke="black" d="M736.991,-143.966C707.079,-133.85 669.044,-120.988 637.946,-110.472"/>
<polygon fill="black" stroke="black" points="638.707,-107.035 628.112,-107.147 636.464,-113.666 638.707,-107.035"/>
</g>
<!-- [root] aws_s3_bucket_object.glue_data_source (expand) -->
<g id="node7" class="node"><title>[root] aws_s3_bucket_object.glue_data_source (expand)</title>
<polygon fill="none" stroke="black" points="902.364,-252 654.364,-252 654.364,-216 902.364,-216 902.364,-252"/>
<text text-anchor="middle" x="778.364" y="-230.3" font-family="Times New Roman,serif" font-size="14.00">aws_s3_bucket_object.glue_data_source</text>
</g>
<!-- [root] aws_s3_bucket_object.glue_data_source (expand)&#45;&gt;[root] aws_s3_bucket.glue_data_bucket (expand) -->
<g id="edge14" class="edge"><title>[root] aws_s3_bucket_object.glue_data_source (expand)&#45;&gt;[root] aws_s3_bucket.glue_data_bucket (expand)</title>
<path fill="none" stroke="black" d="M780.589,-215.697C781.581,-207.983 782.772,-198.712 783.878,-190.112"/>
<polygon fill="black" stroke="black" points="787.361,-190.469 785.165,-180.104 780.418,-189.576 787.361,-190.469"/>
</g>
<!-- [root] var.awsprofile -->
<g id="node9" class="node"><title>[root] var.awsprofile</title>
<polygon fill="none" stroke="black" points="247.864,-36 158.864,-36 158.864,-0 253.864,-0 253.864,-30 247.864,-36"/>
<polyline fill="none" stroke="black" points="247.864,-36 247.864,-30 "/>
<polyline fill="none" stroke="black" points="253.864,-30 247.864,-30 "/>
<text text-anchor="middle" x="206.364" y="-14.3" font-family="Times New Roman,serif" font-size="14.00">var.awsprofile</text>
</g>
<!-- [root] provider[&quot;registry.terraform.io/hashicorp/aws&quot;]&#45;&gt;[root] var.awsprofile -->
<g id="edge21" class="edge"><title>[root] provider[&quot;registry.terraform.io/hashicorp/aws&quot;]&#45;&gt;[root] var.awsprofile</title>
<path fill="none" stroke="black" d="M245.535,-72.7646C239.408,-64.3538 231.784,-53.8904 224.896,-44.4356"/>
<polygon fill="black" stroke="black" points="227.557,-42.1453 218.84,-36.1239 221.9,-46.2673 227.557,-42.1453"/>
</g>
<!-- [root] var.region -->
<g id="node11" class="node"><title>[root] var.region</title>
<polygon fill="none" stroke="black" points="338.364,-36 272.364,-36 272.364,-0 344.364,-0 344.364,-30 338.364,-36"/>
<polyline fill="none" stroke="black" points="338.364,-36 338.364,-30 "/>
<polyline fill="none" stroke="black" points="344.364,-30 338.364,-30 "/>
<text text-anchor="middle" x="308.364" y="-14.3" font-family="Times New Roman,serif" font-size="14.00">var.region</text>
</g>
<!-- [root] provider[&quot;registry.terraform.io/hashicorp/aws&quot;]&#45;&gt;[root] var.region -->
<g id="edge22" class="edge"><title>[root] provider[&quot;registry.terraform.io/hashicorp/aws&quot;]&#45;&gt;[root] var.region</title>
<path fill="none" stroke="black" d="M269.193,-72.7646C275.321,-64.3538 282.944,-53.8904 289.832,-44.4356"/>
<polygon fill="black" stroke="black" points="292.828,-46.2673 295.888,-36.1239 287.171,-42.1453 292.828,-46.2673"/>
</g>
<!-- [root] meta.count&#45;boundary (EachMode fixup) -->
<g id="node12" class="node"><title>[root] meta.count&#45;boundary (EachMode fixup)</title>
<ellipse fill="none" stroke="black" cx="310.364" cy="-306" rx="180.868" ry="18"/>
<text text-anchor="middle" x="310.364" y="-302.3" font-family="Times New Roman,serif" font-size="14.00">[root] meta.count&#45;boundary (EachMode fixup)</text>
</g>
<!-- [root] meta.count&#45;boundary (EachMode fixup)&#45;&gt;[root] aws_glue_crawler.glue_crawler (expand) -->
<g id="edge15" class="edge"><title>[root] meta.count&#45;boundary (EachMode fixup)&#45;&gt;[root] aws_glue_crawler.glue_crawler (expand)</title>
<path fill="none" stroke="black" d="M363.709,-288.765C396.824,-278.686 439.622,-265.661 474.799,-254.955"/>
<polygon fill="black" stroke="black" points="475.956,-258.261 484.504,-252.001 473.918,-251.564 475.956,-258.261"/>
</g>
<!-- [root] meta.count&#45;boundary (EachMode fixup)&#45;&gt;[root] aws_iam_role_policy_attachment.glue_policy_attch (expand) -->
<g id="edge16" class="edge"><title>[root] meta.count&#45;boundary (EachMode fixup)&#45;&gt;[root] aws_iam_role_policy_attachment.glue_policy_attch (expand)</title>
<path fill="none" stroke="black" d="M301.218,-287.697C296.961,-279.644 291.808,-269.894 287.098,-260.982"/>
<polygon fill="black" stroke="black" points="290.172,-259.31 282.405,-252.104 283.984,-262.581 290.172,-259.31"/>
</g>
<!-- [root] meta.count&#45;boundary (EachMode fixup)&#45;&gt;[root] aws_s3_bucket_object.glue_data_source (expand) -->
<g id="edge17" class="edge"><title>[root] meta.count&#45;boundary (EachMode fixup)&#45;&gt;[root] aws_s3_bucket_object.glue_data_source (expand)</title>
<path fill="none" stroke="black" d="M405.917,-290.708C477.556,-279.993 576.229,-265.234 654.013,-253.599"/>
<polygon fill="black" stroke="black" points="654.988,-256.993 664.36,-252.052 653.952,-250.07 654.988,-256.993"/>
</g>
<!-- [root] provider[&quot;registry.terraform.io/hashicorp/aws&quot;] (close) -->
<g id="node13" class="node"><title>[root] provider[&quot;registry.terraform.io/hashicorp/aws&quot;] (close)</title>
<ellipse fill="none" stroke="black" cx="741.364" cy="-306" rx="232.859" ry="18"/>
<text text-anchor="middle" x="741.364" y="-302.3" font-family="Times New Roman,serif" font-size="14.00">[root] provider[&quot;registry.terraform.io/hashicorp/aws&quot;] (close)</text>
</g>
<!-- [root] provider[&quot;registry.terraform.io/hashicorp/aws&quot;] (close)&#45;&gt;[root] aws_glue_crawler.glue_crawler (expand) -->
<g id="edge18" class="edge"><title>[root] provider[&quot;registry.terraform.io/hashicorp/aws&quot;] (close)&#45;&gt;[root] aws_glue_crawler.glue_crawler (expand)</title>
<path fill="none" stroke="black" d="M693.475,-288.322C665.08,-278.434 628.883,-265.827 598.813,-255.355"/>
<polygon fill="black" stroke="black" points="599.877,-252.02 589.283,-252.036 597.575,-258.631 599.877,-252.02"/>
</g>
<!-- [root] provider[&quot;registry.terraform.io/hashicorp/aws&quot;] (close)&#45;&gt;[root] aws_iam_role_policy_attachment.glue_policy_attch (expand) -->
<g id="edge19" class="edge"><title>[root] provider[&quot;registry.terraform.io/hashicorp/aws&quot;] (close)&#45;&gt;[root] aws_iam_role_policy_attachment.glue_policy_attch (expand)</title>
<path fill="none" stroke="black" d="M639.527,-289.768C568.372,-279.125 472.959,-264.854 397.37,-253.548"/>
<polygon fill="black" stroke="black" points="397.72,-250.061 387.312,-252.044 396.685,-256.984 397.72,-250.061"/>
</g>
<!-- [root] provider[&quot;registry.terraform.io/hashicorp/aws&quot;] (close)&#45;&gt;[root] aws_s3_bucket_object.glue_data_source (expand) -->
<g id="edge20" class="edge"><title>[root] provider[&quot;registry.terraform.io/hashicorp/aws&quot;] (close)&#45;&gt;[root] aws_s3_bucket_object.glue_data_source (expand)</title>
<path fill="none" stroke="black" d="M750.51,-287.697C754.767,-279.644 759.92,-269.894 764.63,-260.982"/>
<polygon fill="black" stroke="black" points="767.744,-262.581 769.323,-252.104 761.556,-259.31 767.744,-262.581"/>
</g>
<!-- [root] root -->
<g id="node14" class="node"><title>[root] root</title>
<ellipse fill="none" stroke="black" cx="525.364" cy="-378" rx="49.2915" ry="18"/>
<text text-anchor="middle" x="525.364" y="-374.3" font-family="Times New Roman,serif" font-size="14.00">[root] root</text>
</g>
<!-- [root] root&#45;&gt;[root] meta.count&#45;boundary (EachMode fixup) -->
<g id="edge23" class="edge"><title>[root] root&#45;&gt;[root] meta.count&#45;boundary (EachMode fixup)</title>
<path fill="none" stroke="black" d="M489.861,-365.441C457.425,-354.88 408.805,-339.051 370.345,-326.529"/>
<polygon fill="black" stroke="black" points="371.394,-323.189 360.802,-323.422 369.227,-329.846 371.394,-323.189"/>
</g>
<!-- [root] root&#45;&gt;[root] provider[&quot;registry.terraform.io/hashicorp/aws&quot;] (close) -->
<g id="edge24" class="edge"><title>[root] root&#45;&gt;[root] provider[&quot;registry.terraform.io/hashicorp/aws&quot;] (close)</title>
<path fill="none" stroke="black" d="M561.032,-365.441C593.398,-354.952 641.803,-339.265 680.317,-326.784"/>
<polygon fill="black" stroke="black" points="681.446,-330.097 689.88,-323.685 679.288,-323.438 681.446,-330.097"/>
</g>
</g>
</svg>
