<?xml version="1.0" encoding="UTF-8" standalone="no"?>
<!DOCTYPE svg PUBLIC "-//W3C//DTD SVG 1.1//EN"
 "http://www.w3.org/Graphics/SVG/1.1/DTD/svg11.dtd">
<!-- Generated by graphviz version 2.38.0 (20140413.2041)
 -->
<!-- Title: %3 Pages: 1 -->
<svg width="1350pt" height="404pt"
 viewBox="0.00 0.00 1349.50 404.00" xmlns="http://www.w3.org/2000/svg" xmlns:xlink="http://www.w3.org/1999/xlink">
<g id="graph0" class="graph" transform="scale(1 1) rotate(0) translate(4 400)">
<title>%3</title>
<polygon fill="white" stroke="none" points="-4,4 -4,-400 1345.5,-400 1345.5,4 -4,4"/>
<!-- [root] aws_iam_policy.sagemaker_s3_policy (expand) -->
<g id="node1" class="node"><title>[root] aws_iam_policy.sagemaker_s3_policy (expand)</title>
<polygon fill="none" stroke="black" points="615.5,-180 383.5,-180 383.5,-144 615.5,-144 615.5,-180"/>
<text text-anchor="middle" x="499.5" y="-158.3" font-family="Times New Roman,serif" font-size="14.00">aws_iam_policy.sagemaker_s3_policy</text>
</g>
<!-- [root] provider[&quot;registry.terraform.io/hashicorp/aws&quot;] -->
<g id="node9" class="node"><title>[root] provider[&quot;registry.terraform.io/hashicorp/aws&quot;]</title>
<polygon fill="none" stroke="black" points="512.5,-108 255.272,-90 512.5,-72 769.728,-90 512.5,-108"/>
<text text-anchor="middle" x="512.5" y="-86.3" font-family="Times New Roman,serif" font-size="14.00">provider[&quot;registry.terraform.io/hashicorp/aws&quot;]</text>
</g>
<!-- [root] aws_iam_policy.sagemaker_s3_policy (expand)&#45;&gt;[root] provider[&quot;registry.terraform.io/hashicorp/aws&quot;] -->
<g id="edge1" class="edge"><title>[root] aws_iam_policy.sagemaker_s3_policy (expand)&#45;&gt;[root] provider[&quot;registry.terraform.io/hashicorp/aws&quot;]</title>
<path fill="none" stroke="black" d="M502.713,-143.697C504.146,-135.983 505.868,-126.712 507.465,-118.112"/>
<polygon fill="black" stroke="black" points="510.939,-118.575 509.323,-108.104 504.056,-117.297 510.939,-118.575"/>
</g>
<!-- [root] aws_iam_role.role (expand) -->
<g id="node2" class="node"><title>[root] aws_iam_role.role (expand)</title>
<polygon fill="none" stroke="black" points="753,-180 634,-180 634,-144 753,-144 753,-180"/>
<text text-anchor="middle" x="693.5" y="-158.3" font-family="Times New Roman,serif" font-size="14.00">aws_iam_role.role</text>
</g>
<!-- [root] aws_iam_role.role (expand)&#45;&gt;[root] provider[&quot;registry.terraform.io/hashicorp/aws&quot;] -->
<g id="edge2" class="edge"><title>[root] aws_iam_role.role (expand)&#45;&gt;[root] provider[&quot;registry.terraform.io/hashicorp/aws&quot;]</title>
<path fill="none" stroke="black" d="M649.222,-143.876C621.979,-133.34 587.097,-119.85 559.385,-109.132"/>
<polygon fill="black" stroke="black" points="560.496,-105.809 549.906,-105.467 557.971,-112.338 560.496,-105.809"/>
</g>
<!-- [root] var.obj_prefix -->
<g id="node11" class="node"><title>[root] var.obj_prefix</title>
<polygon fill="none" stroke="black" points="904,-108 815,-108 815,-72 910,-72 910,-102 904,-108"/>
<polyline fill="none" stroke="black" points="904,-108 904,-102 "/>
<polyline fill="none" stroke="black" points="910,-102 904,-102 "/>
<text text-anchor="middle" x="862.5" y="-86.3" font-family="Times New Roman,serif" font-size="14.00">var.obj_prefix</text>
</g>
<!-- [root] aws_iam_role.role (expand)&#45;&gt;[root] var.obj_prefix -->
<g id="edge3" class="edge"><title>[root] aws_iam_role.role (expand)&#45;&gt;[root] var.obj_prefix</title>
<path fill="none" stroke="black" d="M734.842,-143.876C758.048,-134.264 787.19,-122.193 811.77,-112.013"/>
<polygon fill="black" stroke="black" points="813.393,-115.129 821.292,-108.068 810.714,-108.662 813.393,-115.129"/>
</g>
<!-- [root] aws_iam_role_policy_attachment.sagemaker_policy_attch (expand) -->
<g id="node3" class="node"><title>[root] aws_iam_role_policy_attachment.sagemaker_policy_attch (expand)</title>
<polygon fill="none" stroke="black" points="1039.5,-252 697.5,-252 697.5,-216 1039.5,-216 1039.5,-252"/>
<text text-anchor="middle" x="868.5" y="-230.3" font-family="Times New Roman,serif" font-size="14.00">aws_iam_role_policy_attachment.sagemaker_policy_attch</text>
</g>
<!-- [root] aws_iam_role_policy_attachment.sagemaker_policy_attch (expand)&#45;&gt;[root] aws_iam_role.role (expand) -->
<g id="edge4" class="edge"><title>[root] aws_iam_role_policy_attachment.sagemaker_policy_attch (expand)&#45;&gt;[root] aws_iam_role.role (expand)</title>
<path fill="none" stroke="black" d="M825.69,-215.876C801.554,-206.222 771.216,-194.087 745.694,-183.878"/>
<polygon fill="black" stroke="black" points="746.755,-180.533 736.171,-180.068 744.156,-187.032 746.755,-180.533"/>
</g>
<!-- [root] aws_iam_role_policy_attachment.sagemaker_s3_policy_attch (expand) -->
<g id="node4" class="node"><title>[root] aws_iam_role_policy_attachment.sagemaker_s3_policy_attch (expand)</title>
<polygon fill="none" stroke="black" points="679.5,-252 317.5,-252 317.5,-216 679.5,-216 679.5,-252"/>
<text text-anchor="middle" x="498.5" y="-230.3" font-family="Times New Roman,serif" font-size="14.00">aws_iam_role_policy_attachment.sagemaker_s3_policy_attch</text>
</g>
<!-- [root] aws_iam_role_policy_attachment.sagemaker_s3_policy_attch (expand)&#45;&gt;[root] aws_iam_policy.sagemaker_s3_policy (expand) -->
<g id="edge5" class="edge"><title>[root] aws_iam_role_policy_attachment.sagemaker_s3_policy_attch (expand)&#45;&gt;[root] aws_iam_policy.sagemaker_s3_policy (expand)</title>
<path fill="none" stroke="black" d="M498.747,-215.697C498.857,-207.983 498.99,-198.712 499.113,-190.112"/>
<polygon fill="black" stroke="black" points="502.612,-190.153 499.256,-180.104 495.613,-190.053 502.612,-190.153"/>
</g>
<!-- [root] aws_iam_role_policy_attachment.sagemaker_s3_policy_attch (expand)&#45;&gt;[root] aws_iam_role.role (expand) -->
<g id="edge6" class="edge"><title>[root] aws_iam_role_policy_attachment.sagemaker_s3_policy_attch (expand)&#45;&gt;[root] aws_iam_role.role (expand)</title>
<path fill="none" stroke="black" d="M546.202,-215.876C573.452,-206.094 607.797,-193.765 636.466,-183.474"/>
<polygon fill="black" stroke="black" points="637.723,-186.741 645.953,-180.068 635.358,-180.153 637.723,-186.741"/>
</g>
<!-- [root] aws_s3_bucket.sagemaker_bucket (expand) -->
<g id="node5" class="node"><title>[root] aws_s3_bucket.sagemaker_bucket (expand)</title>
<polygon fill="none" stroke="black" points="982,-180 771,-180 771,-144 982,-144 982,-180"/>
<text text-anchor="middle" x="876.5" y="-158.3" font-family="Times New Roman,serif" font-size="14.00">aws_s3_bucket.sagemaker_bucket</text>
</g>
<!-- [root] aws_s3_bucket.sagemaker_bucket (expand)&#45;&gt;[root] provider[&quot;registry.terraform.io/hashicorp/aws&quot;] -->
<g id="edge7" class="edge"><title>[root] aws_s3_bucket.sagemaker_bucket (expand)&#45;&gt;[root] provider[&quot;registry.terraform.io/hashicorp/aws&quot;]</title>
<path fill="none" stroke="black" d="M787.921,-143.966C726.451,-132.144 645.475,-116.572 587.257,-105.376"/>
<polygon fill="black" stroke="black" points="587.871,-101.93 577.39,-103.479 586.549,-108.804 587.871,-101.93"/>
</g>
<!-- [root] aws_s3_bucket.sagemaker_bucket (expand)&#45;&gt;[root] var.obj_prefix -->
<g id="edge8" class="edge"><title>[root] aws_s3_bucket.sagemaker_bucket (expand)&#45;&gt;[root] var.obj_prefix</title>
<path fill="none" stroke="black" d="M873.039,-143.697C871.497,-135.983 869.642,-126.712 867.922,-118.112"/>
<polygon fill="black" stroke="black" points="871.314,-117.224 865.921,-108.104 864.45,-118.597 871.314,-117.224"/>
</g>
<!-- [root] aws_s3_bucket_object.sagemaker_data_source (expand) -->
<g id="node6" class="node"><title>[root] aws_s3_bucket_object.sagemaker_data_source (expand)</title>
<polygon fill="none" stroke="black" points="1341.5,-252 1057.5,-252 1057.5,-216 1341.5,-216 1341.5,-252"/>
<text text-anchor="middle" x="1199.5" y="-230.3" font-family="Times New Roman,serif" font-size="14.00">aws_s3_bucket_object.sagemaker_data_source</text>
</g>
<!-- [root] aws_s3_bucket_object.sagemaker_data_source (expand)&#45;&gt;[root] aws_s3_bucket.sagemaker_bucket (expand) -->
<g id="edge9" class="edge"><title>[root] aws_s3_bucket_object.sagemaker_data_source (expand)&#45;&gt;[root] aws_s3_bucket.sagemaker_bucket (expand)</title>
<path fill="none" stroke="black" d="M1120.9,-215.966C1073.82,-205.762 1013.84,-192.764 965.083,-182.198"/>
<polygon fill="black" stroke="black" points="965.688,-178.748 955.174,-180.05 964.206,-185.589 965.688,-178.748"/>
</g>
<!-- [root] aws_sagemaker_notebook_instance.ni (expand) -->
<g id="node7" class="node"><title>[root] aws_sagemaker_notebook_instance.ni (expand)</title>
<polygon fill="none" stroke="black" points="299,-252 68,-252 68,-216 299,-216 299,-252"/>
<text text-anchor="middle" x="183.5" y="-230.3" font-family="Times New Roman,serif" font-size="14.00">aws_sagemaker_notebook_instance.ni</text>
</g>
<!-- [root] aws_sagemaker_notebook_instance.ni (expand)&#45;&gt;[root] aws_iam_role.role (expand) -->
<g id="edge10" class="edge"><title>[root] aws_sagemaker_notebook_instance.ni (expand)&#45;&gt;[root] aws_iam_role.role (expand)</title>
<path fill="none" stroke="black" d="M299.263,-217.166C302.374,-216.77 305.457,-216.38 308.5,-216 445.475,-198.885 483.595,-204.668 623.509,-180.041"/>
<polygon fill="black" stroke="black" points="624.53,-183.415 633.761,-178.215 623.302,-176.523 624.53,-183.415"/>
</g>
<!-- [root] aws_sagemaker_notebook_instance_lifecycle_configuration.lc (expand) -->
<g id="node8" class="node"><title>[root] aws_sagemaker_notebook_instance_lifecycle_configuration.lc (expand)</title>
<polygon fill="none" stroke="black" points="365,-180 0,-180 0,-144 365,-144 365,-180"/>
<text text-anchor="middle" x="182.5" y="-158.3" font-family="Times New Roman,serif" font-size="14.00">aws_sagemaker_notebook_instance_lifecycle_configuration.lc</text>
</g>
<!-- [root] aws_sagemaker_notebook_instance.ni (expand)&#45;&gt;[root] aws_sagemaker_notebook_instance_lifecycle_configuration.lc (expand) -->
<g id="edge11" class="edge"><title>[root] aws_sagemaker_notebook_instance.ni (expand)&#45;&gt;[root] aws_sagemaker_notebook_instance_lifecycle_configuration.lc (expand)</title>
<path fill="none" stroke="black" d="M183.253,-215.697C183.143,-207.983 183.01,-198.712 182.887,-190.112"/>
<polygon fill="black" stroke="black" points="186.387,-190.053 182.744,-180.104 179.388,-190.153 186.387,-190.053"/>
</g>
<!-- [root] aws_sagemaker_notebook_instance_lifecycle_configuration.lc (expand)&#45;&gt;[root] provider[&quot;registry.terraform.io/hashicorp/aws&quot;] -->
<g id="edge12" class="edge"><title>[root] aws_sagemaker_notebook_instance_lifecycle_configuration.lc (expand)&#45;&gt;[root] provider[&quot;registry.terraform.io/hashicorp/aws&quot;]</title>
<path fill="none" stroke="black" d="M262.805,-143.966C317.65,-132.332 389.623,-117.065 442.201,-105.912"/>
<polygon fill="black" stroke="black" points="443.059,-109.308 452.115,-103.809 441.607,-102.46 443.059,-109.308"/>
</g>
<!-- [root] var.awsprofile -->
<g id="node10" class="node"><title>[root] var.awsprofile</title>
<polygon fill="none" stroke="black" points="503,-36 414,-36 414,-0 509,-0 509,-30 503,-36"/>
<polyline fill="none" stroke="black" points="503,-36 503,-30 "/>
<polyline fill="none" stroke="black" points="509,-30 503,-30 "/>
<text text-anchor="middle" x="461.5" y="-14.3" font-family="Times New Roman,serif" font-size="14.00">var.awsprofile</text>
</g>
<!-- [root] provider[&quot;registry.terraform.io/hashicorp/aws&quot;]&#45;&gt;[root] var.awsprofile -->
<g id="edge21" class="edge"><title>[root] provider[&quot;registry.terraform.io/hashicorp/aws&quot;]&#45;&gt;[root] var.awsprofile</title>
<path fill="none" stroke="black" d="M500.671,-72.7646C494.544,-64.3538 486.92,-53.8904 480.032,-44.4356"/>
<polygon fill="black" stroke="black" points="482.693,-42.1453 473.976,-36.1239 477.036,-46.2673 482.693,-42.1453"/>
</g>
<!-- [root] var.region -->
<g id="node12" class="node"><title>[root] var.region</title>
<polygon fill="none" stroke="black" points="593.5,-36 527.5,-36 527.5,-0 599.5,-0 599.5,-30 593.5,-36"/>
<polyline fill="none" stroke="black" points="593.5,-36 593.5,-30 "/>
<polyline fill="none" stroke="black" points="599.5,-30 593.5,-30 "/>
<text text-anchor="middle" x="563.5" y="-14.3" font-family="Times New Roman,serif" font-size="14.00">var.region</text>
</g>
<!-- [root] provider[&quot;registry.terraform.io/hashicorp/aws&quot;]&#45;&gt;[root] var.region -->
<g id="edge22" class="edge"><title>[root] provider[&quot;registry.terraform.io/hashicorp/aws&quot;]&#45;&gt;[root] var.region</title>
<path fill="none" stroke="black" d="M524.329,-72.7646C530.456,-64.3538 538.08,-53.8904 544.968,-44.4356"/>
<polygon fill="black" stroke="black" points="547.964,-46.2673 551.024,-36.1239 542.307,-42.1453 547.964,-46.2673"/>
</g>
<!-- [root] meta.count&#45;boundary (EachMode fixup) -->
<g id="node13" class="node"><title>[root] meta.count&#45;boundary (EachMode fixup)</title>
<ellipse fill="none" stroke="black" cx="467.5" cy="-306" rx="180.868" ry="18"/>
<text text-anchor="middle" x="467.5" y="-302.3" font-family="Times New Roman,serif" font-size="14.00">[root] meta.count&#45;boundary (EachMode fixup)</text>
</g>
<!-- [root] meta.count&#45;boundary (EachMode fixup)&#45;&gt;[root] aws_iam_role_policy_attachment.sagemaker_policy_attch (expand) -->
<g id="edge13" class="edge"><title>[root] meta.count&#45;boundary (EachMode fixup)&#45;&gt;[root] aws_iam_role_policy_attachment.sagemaker_policy_attch (expand)</title>
<path fill="none" stroke="black" d="M553.033,-290.069C613.746,-279.471 695.702,-265.164 760.862,-253.79"/>
<polygon fill="black" stroke="black" points="761.51,-257.23 770.759,-252.062 760.307,-250.334 761.51,-257.23"/>
</g>
<!-- [root] meta.count&#45;boundary (EachMode fixup)&#45;&gt;[root] aws_iam_role_policy_attachment.sagemaker_s3_policy_attch (expand) -->
<g id="edge14" class="edge"><title>[root] meta.count&#45;boundary (EachMode fixup)&#45;&gt;[root] aws_iam_role_policy_attachment.sagemaker_s3_policy_attch (expand)</title>
<path fill="none" stroke="black" d="M475.163,-287.697C478.692,-279.728 482.956,-270.1 486.869,-261.264"/>
<polygon fill="black" stroke="black" points="490.076,-262.665 490.925,-252.104 483.676,-259.831 490.076,-262.665"/>
</g>
<!-- [root] meta.count&#45;boundary (EachMode fixup)&#45;&gt;[root] aws_s3_bucket_object.sagemaker_data_source (expand) -->
<g id="edge15" class="edge"><title>[root] meta.count&#45;boundary (EachMode fixup)&#45;&gt;[root] aws_s3_bucket_object.sagemaker_data_source (expand)</title>
<path fill="none" stroke="black" d="M596.692,-293.361C745.573,-279.926 977.718,-258.905 1046.92,-252.129"/>
<polygon fill="black" stroke="black" points="1047.64,-255.574 1057.24,-251.1 1046.95,-248.609 1047.64,-255.574"/>
</g>
<!-- [root] meta.count&#45;boundary (EachMode fixup)&#45;&gt;[root] aws_sagemaker_notebook_instance.ni (expand) -->
<g id="edge16" class="edge"><title>[root] meta.count&#45;boundary (EachMode fixup)&#45;&gt;[root] aws_sagemaker_notebook_instance.ni (expand)</title>
<path fill="none" stroke="black" d="M403.056,-289.116C361.367,-278.841 306.813,-265.394 262.516,-254.476"/>
<polygon fill="black" stroke="black" points="263.198,-251.039 252.651,-252.044 261.523,-257.836 263.198,-251.039"/>
</g>
<!-- [root] provider[&quot;registry.terraform.io/hashicorp/aws&quot;] (close) -->
<g id="node14" class="node"><title>[root] provider[&quot;registry.terraform.io/hashicorp/aws&quot;] (close)</title>
<ellipse fill="none" stroke="black" cx="898.5" cy="-306" rx="232.859" ry="18"/>
<text text-anchor="middle" x="898.5" y="-302.3" font-family="Times New Roman,serif" font-size="14.00">[root] provider[&quot;registry.terraform.io/hashicorp/aws&quot;] (close)</text>
</g>
<!-- [root] provider[&quot;registry.terraform.io/hashicorp/aws&quot;] (close)&#45;&gt;[root] aws_iam_role_policy_attachment.sagemaker_policy_attch (expand) -->
<g id="edge17" class="edge"><title>[root] provider[&quot;registry.terraform.io/hashicorp/aws&quot;] (close)&#45;&gt;[root] aws_iam_role_policy_attachment.sagemaker_policy_attch (expand)</title>
<path fill="none" stroke="black" d="M891.084,-287.697C887.706,-279.813 883.63,-270.304 879.877,-261.546"/>
<polygon fill="black" stroke="black" points="882.987,-259.917 875.83,-252.104 876.553,-262.675 882.987,-259.917"/>
</g>
<!-- [root] provider[&quot;registry.terraform.io/hashicorp/aws&quot;] (close)&#45;&gt;[root] aws_iam_role_policy_attachment.sagemaker_s3_policy_attch (expand) -->
<g id="edge18" class="edge"><title>[root] provider[&quot;registry.terraform.io/hashicorp/aws&quot;] (close)&#45;&gt;[root] aws_iam_role_policy_attachment.sagemaker_s3_policy_attch (expand)</title>
<path fill="none" stroke="black" d="M808.732,-289.291C748.606,-278.769 669.149,-264.864 605.702,-253.76"/>
<polygon fill="black" stroke="black" points="606.116,-250.28 595.662,-252.003 604.909,-257.175 606.116,-250.28"/>
</g>
<!-- [root] provider[&quot;registry.terraform.io/hashicorp/aws&quot;] (close)&#45;&gt;[root] aws_s3_bucket_object.sagemaker_data_source (expand) -->
<g id="edge19" class="edge"><title>[root] provider[&quot;registry.terraform.io/hashicorp/aws&quot;] (close)&#45;&gt;[root] aws_s3_bucket_object.sagemaker_data_source (expand)</title>
<path fill="none" stroke="black" d="M968.312,-288.765C1012.58,-278.471 1070.06,-265.103 1116.63,-254.272"/>
<polygon fill="black" stroke="black" points="1117.45,-257.675 1126.4,-252.001 1115.86,-250.857 1117.45,-257.675"/>
</g>
<!-- [root] provider[&quot;registry.terraform.io/hashicorp/aws&quot;] (close)&#45;&gt;[root] aws_sagemaker_notebook_instance.ni (expand) -->
<g id="edge20" class="edge"><title>[root] provider[&quot;registry.terraform.io/hashicorp/aws&quot;] (close)&#45;&gt;[root] aws_sagemaker_notebook_instance.ni (expand)</title>
<path fill="none" stroke="black" d="M740.538,-292.777C624.163,-283.305 461.79,-269.118 309.282,-252.059"/>
<polygon fill="black" stroke="black" points="309.58,-248.571 299.251,-250.931 308.798,-255.527 309.58,-248.571"/>
</g>
<!-- [root] root -->
<g id="node15" class="node"><title>[root] root</title>
<ellipse fill="none" stroke="black" cx="682.5" cy="-378" rx="49.2915" ry="18"/>
<text text-anchor="middle" x="682.5" y="-374.3" font-family="Times New Roman,serif" font-size="14.00">[root] root</text>
</g>
<!-- [root] root&#45;&gt;[root] meta.count&#45;boundary (EachMode fixup) -->
<g id="edge23" class="edge"><title>[root] root&#45;&gt;[root] meta.count&#45;boundary (EachMode fixup)</title>
<path fill="none" stroke="black" d="M646.997,-365.441C614.561,-354.88 565.941,-339.051 527.481,-326.529"/>
<polygon fill="black" stroke="black" points="528.53,-323.189 517.938,-323.422 526.363,-329.846 528.53,-323.189"/>
</g>
<!-- [root] root&#45;&gt;[root] provider[&quot;registry.terraform.io/hashicorp/aws&quot;] (close) -->
<g id="edge24" class="edge"><title>[root] root&#45;&gt;[root] provider[&quot;registry.terraform.io/hashicorp/aws&quot;] (close)</title>
<path fill="none" stroke="black" d="M718.168,-365.441C750.534,-354.952 798.939,-339.265 837.453,-326.784"/>
<polygon fill="black" stroke="black" points="838.582,-330.097 847.016,-323.685 836.424,-323.438 838.582,-330.097"/>
</g>
</g>
</svg>
