<?xml version="1.0" encoding="UTF-8" standalone="no"?>
<!DOCTYPE svg PUBLIC "-//W3C//DTD SVG 1.1//EN"
 "http://www.w3.org/Graphics/SVG/1.1/DTD/svg11.dtd">
<!-- Generated by graphviz version 2.38.0 (20140413.2041)
 -->
<!-- Title: %3 Pages: 1 -->
<svg width="852pt" height="404pt"
 viewBox="0.00 0.00 852.36 404.00" xmlns="http://www.w3.org/2000/svg" xmlns:xlink="http://www.w3.org/1999/xlink">
<g id="graph0" class="graph" transform="scale(1 1) rotate(0) translate(4 400)">
<title>%3</title>
<polygon fill="white" stroke="none" points="-4,4 -4,-400 848.363,-400 848.363,4 -4,4"/>
<!-- [root] aws_iam_role.role (expand) -->
<g id="node1" class="node"><title>[root] aws_iam_role.role (expand)</title>
<polygon fill="none" stroke="black" points="678.179,-180 559.179,-180 559.179,-144 678.179,-144 678.179,-180"/>
<text text-anchor="middle" x="618.679" y="-158.3" font-family="Times New Roman,serif" font-size="14.00">aws_iam_role.role</text>
</g>
<!-- [root] provider[&quot;registry.terraform.io/hashicorp/aws&quot;] -->
<g id="node4" class="node"><title>[root] provider[&quot;registry.terraform.io/hashicorp/aws&quot;]</title>
<polygon fill="none" stroke="black" points="373.679,-108 116.451,-90 373.679,-72 630.907,-90 373.679,-108"/>
<text text-anchor="middle" x="373.679" y="-86.3" font-family="Times New Roman,serif" font-size="14.00">provider[&quot;registry.terraform.io/hashicorp/aws&quot;]</text>
</g>
<!-- [root] aws_iam_role.role (expand)&#45;&gt;[root] provider[&quot;registry.terraform.io/hashicorp/aws&quot;] -->
<g id="edge1" class="edge"><title>[root] aws_iam_role.role (expand)&#45;&gt;[root] provider[&quot;registry.terraform.io/hashicorp/aws&quot;]</title>
<path fill="none" stroke="black" d="M559.059,-143.966C520.312,-132.895 470.05,-118.535 431.639,-107.56"/>
<polygon fill="black" stroke="black" points="432.219,-104.085 421.642,-104.704 430.295,-110.816 432.219,-104.085"/>
</g>
<!-- [root] var.obj_prefix -->
<g id="node6" class="node"><title>[root] var.obj_prefix</title>
<polygon fill="none" stroke="black" points="738.179,-108 649.179,-108 649.179,-72 744.179,-72 744.179,-102 738.179,-108"/>
<polyline fill="none" stroke="black" points="738.179,-108 738.179,-102 "/>
<polyline fill="none" stroke="black" points="744.179,-102 738.179,-102 "/>
<text text-anchor="middle" x="696.679" y="-86.3" font-family="Times New Roman,serif" font-size="14.00">var.obj_prefix</text>
</g>
<!-- [root] aws_iam_role.role (expand)&#45;&gt;[root] var.obj_prefix -->
<g id="edge2" class="edge"><title>[root] aws_iam_role.role (expand)&#45;&gt;[root] var.obj_prefix</title>
<path fill="none" stroke="black" d="M637.96,-143.697C647.595,-135.05 659.408,-124.449 669.906,-115.027"/>
<polygon fill="black" stroke="black" points="672.515,-117.388 677.62,-108.104 667.84,-112.179 672.515,-117.388"/>
</g>
<!-- [root] aws_s3_bucket.bucket (expand) -->
<g id="node2" class="node"><title>[root] aws_s3_bucket.bucket (expand)</title>
<polygon fill="none" stroke="black" points="523.179,-180 378.179,-180 378.179,-144 523.179,-144 523.179,-180"/>
<text text-anchor="middle" x="450.679" y="-158.3" font-family="Times New Roman,serif" font-size="14.00">aws_s3_bucket.bucket</text>
</g>
<!-- [root] aws_s3_bucket.bucket (expand)&#45;&gt;[root] provider[&quot;registry.terraform.io/hashicorp/aws&quot;] -->
<g id="edge3" class="edge"><title>[root] aws_s3_bucket.bucket (expand)&#45;&gt;[root] provider[&quot;registry.terraform.io/hashicorp/aws&quot;]</title>
<path fill="none" stroke="black" d="M431.646,-143.697C421.683,-134.64 409.36,-123.437 398.642,-113.693"/>
<polygon fill="black" stroke="black" points="400.931,-111.044 391.177,-106.907 396.222,-116.224 400.931,-111.044"/>
</g>
<!-- [root] aws_s3_bucket.bucket (expand)&#45;&gt;[root] var.obj_prefix -->
<g id="edge4" class="edge"><title>[root] aws_s3_bucket.bucket (expand)&#45;&gt;[root] var.obj_prefix</title>
<path fill="none" stroke="black" d="M512.465,-143.95C547.11,-134.325 591.346,-121.93 639.442,-108.047"/>
<polygon fill="black" stroke="black" points="640.477,-111.391 649.111,-105.251 638.532,-104.667 640.477,-111.391"/>
</g>
<!-- [root] aws_s3_bucket_object.data_targets (expand) -->
<g id="node3" class="node"><title>[root] aws_s3_bucket_object.data_targets (expand)</title>
<polygon fill="none" stroke="black" points="559.179,-252 342.179,-252 342.179,-216 559.179,-216 559.179,-252"/>
<text text-anchor="middle" x="450.679" y="-230.3" font-family="Times New Roman,serif" font-size="14.00">aws_s3_bucket_object.data_targets</text>
</g>
<!-- [root] aws_s3_bucket_object.data_targets (expand)&#45;&gt;[root] aws_s3_bucket.bucket (expand) -->
<g id="edge5" class="edge"><title>[root] aws_s3_bucket_object.data_targets (expand)&#45;&gt;[root] aws_s3_bucket.bucket (expand)</title>
<path fill="none" stroke="black" d="M450.679,-215.697C450.679,-207.983 450.679,-198.712 450.679,-190.112"/>
<polygon fill="black" stroke="black" points="454.179,-190.104 450.679,-180.104 447.179,-190.104 454.179,-190.104"/>
</g>
<!-- [root] var.awsprofile -->
<g id="node5" class="node"><title>[root] var.awsprofile</title>
<polygon fill="none" stroke="black" points="364.179,-36 275.179,-36 275.179,-0 370.179,-0 370.179,-30 364.179,-36"/>
<polyline fill="none" stroke="black" points="364.179,-36 364.179,-30 "/>
<polyline fill="none" stroke="black" points="370.179,-30 364.179,-30 "/>
<text text-anchor="middle" x="322.679" y="-14.3" font-family="Times New Roman,serif" font-size="14.00">var.awsprofile</text>
</g>
<!-- [root] provider[&quot;registry.terraform.io/hashicorp/aws&quot;]&#45;&gt;[root] var.awsprofile -->
<g id="edge10" class="edge"><title>[root] provider[&quot;registry.terraform.io/hashicorp/aws&quot;]&#45;&gt;[root] var.awsprofile</title>
<path fill="none" stroke="black" d="M361.851,-72.7646C355.723,-64.3538 348.1,-53.8904 341.211,-44.4356"/>
<polygon fill="black" stroke="black" points="343.873,-42.1453 335.155,-36.1239 338.215,-46.2673 343.873,-42.1453"/>
</g>
<!-- [root] var.region -->
<g id="node7" class="node"><title>[root] var.region</title>
<polygon fill="none" stroke="black" points="454.679,-36 388.679,-36 388.679,-0 460.679,-0 460.679,-30 454.679,-36"/>
<polyline fill="none" stroke="black" points="454.679,-36 454.679,-30 "/>
<polyline fill="none" stroke="black" points="460.679,-30 454.679,-30 "/>
<text text-anchor="middle" x="424.679" y="-14.3" font-family="Times New Roman,serif" font-size="14.00">var.region</text>
</g>
<!-- [root] provider[&quot;registry.terraform.io/hashicorp/aws&quot;]&#45;&gt;[root] var.region -->
<g id="edge11" class="edge"><title>[root] provider[&quot;registry.terraform.io/hashicorp/aws&quot;]&#45;&gt;[root] var.region</title>
<path fill="none" stroke="black" d="M385.508,-72.7646C391.636,-64.3538 399.259,-53.8904 406.148,-44.4356"/>
<polygon fill="black" stroke="black" points="409.144,-46.2673 412.203,-36.1239 403.486,-42.1453 409.144,-46.2673"/>
</g>
<!-- [root] meta.count&#45;boundary (EachMode fixup) -->
<g id="node8" class="node"><title>[root] meta.count&#45;boundary (EachMode fixup)</title>
<ellipse fill="none" stroke="black" cx="663.679" cy="-306" rx="180.868" ry="18"/>
<text text-anchor="middle" x="663.679" y="-302.3" font-family="Times New Roman,serif" font-size="14.00">[root] meta.count&#45;boundary (EachMode fixup)</text>
</g>
<!-- [root] meta.count&#45;boundary (EachMode fixup)&#45;&gt;[root] aws_iam_role.role (expand) -->
<g id="edge6" class="edge"><title>[root] meta.count&#45;boundary (EachMode fixup)&#45;&gt;[root] aws_iam_role.role (expand)</title>
<path fill="none" stroke="black" d="M658.251,-287.871C650.548,-263.564 636.368,-218.819 627.24,-190.013"/>
<polygon fill="black" stroke="black" points="630.484,-188.665 624.127,-180.189 623.811,-190.779 630.484,-188.665"/>
</g>
<!-- [root] meta.count&#45;boundary (EachMode fixup)&#45;&gt;[root] aws_s3_bucket_object.data_targets (expand) -->
<g id="edge7" class="edge"><title>[root] meta.count&#45;boundary (EachMode fixup)&#45;&gt;[root] aws_s3_bucket_object.data_targets (expand)</title>
<path fill="none" stroke="black" d="M614.009,-288.676C583.707,-278.718 544.724,-265.907 512.443,-255.298"/>
<polygon fill="black" stroke="black" points="513.25,-251.879 502.657,-252.082 511.065,-258.529 513.25,-251.879"/>
</g>
<!-- [root] provider[&quot;registry.terraform.io/hashicorp/aws&quot;] (close) -->
<g id="node9" class="node"><title>[root] provider[&quot;registry.terraform.io/hashicorp/aws&quot;] (close)</title>
<ellipse fill="none" stroke="black" cx="232.679" cy="-306" rx="232.859" ry="18"/>
<text text-anchor="middle" x="232.679" y="-302.3" font-family="Times New Roman,serif" font-size="14.00">[root] provider[&quot;registry.terraform.io/hashicorp/aws&quot;] (close)</text>
</g>
<!-- [root] provider[&quot;registry.terraform.io/hashicorp/aws&quot;] (close)&#45;&gt;[root] aws_iam_role.role (expand) -->
<g id="edge8" class="edge"><title>[root] provider[&quot;registry.terraform.io/hashicorp/aws&quot;] (close)&#45;&gt;[root] aws_iam_role.role (expand)</title>
<path fill="none" stroke="black" d="M246.612,-287.829C264.328,-267.253 296.94,-233.382 332.679,-216 413.9,-176.497 443.93,-196.758 532.679,-180 538.007,-178.994 543.518,-177.939 549.057,-176.867"/>
<polygon fill="black" stroke="black" points="549.876,-180.274 559.024,-174.929 548.54,-173.402 549.876,-180.274"/>
</g>
<!-- [root] provider[&quot;registry.terraform.io/hashicorp/aws&quot;] (close)&#45;&gt;[root] aws_s3_bucket_object.data_targets (expand) -->
<g id="edge9" class="edge"><title>[root] provider[&quot;registry.terraform.io/hashicorp/aws&quot;] (close)&#45;&gt;[root] aws_s3_bucket_object.data_targets (expand)</title>
<path fill="none" stroke="black" d="M284.342,-288.411C315.265,-278.482 354.794,-265.789 387.558,-255.268"/>
<polygon fill="black" stroke="black" points="389.041,-258.468 397.492,-252.078 386.901,-251.803 389.041,-258.468"/>
</g>
<!-- [root] root -->
<g id="node10" class="node"><title>[root] root</title>
<ellipse fill="none" stroke="black" cx="447.679" cy="-378" rx="49.2915" ry="18"/>
<text text-anchor="middle" x="447.679" y="-374.3" font-family="Times New Roman,serif" font-size="14.00">[root] root</text>
</g>
<!-- [root] root&#45;&gt;[root] meta.count&#45;boundary (EachMode fixup) -->
<g id="edge12" class="edge"><title>[root] root&#45;&gt;[root] meta.count&#45;boundary (EachMode fixup)</title>
<path fill="none" stroke="black" d="M483.347,-365.441C516.044,-354.845 565.112,-338.943 603.812,-326.401"/>
<polygon fill="black" stroke="black" points="604.978,-329.703 613.412,-323.29 602.82,-323.044 604.978,-329.703"/>
</g>
<!-- [root] root&#45;&gt;[root] provider[&quot;registry.terraform.io/hashicorp/aws&quot;] (close) -->
<g id="edge13" class="edge"><title>[root] root&#45;&gt;[root] provider[&quot;registry.terraform.io/hashicorp/aws&quot;] (close)</title>
<path fill="none" stroke="black" d="M412.176,-365.441C379.961,-354.952 331.779,-339.265 293.444,-326.784"/>
<polygon fill="black" stroke="black" points="294.518,-323.453 283.925,-323.685 292.351,-330.109 294.518,-323.453"/>
</g>
</g>
</svg>
